<svg width="21" height="21" viewBox="0 0 21 21" fill="none" xmlns="http://www.w3.org/2000/svg">
<mask id="path-1-inside-1" fill="white">
<path d="M10.5 0H5.95C5.75671 0 5.6 0.156714 5.6 0.35V2.8H0.35C0.156714 2.8 0 2.95671 0 3.15V20.65C0 20.8433 0.156714 21 0.35 21H10.5C10.6933 21 10.85 20.8433 10.85 20.65V0.35C10.85 0.156714 10.6933 0 10.5 0ZM10.15 18.2H6.3V17.5H10.15V18.2ZM0.7 5.25H5.6V15.75H0.7V5.25ZM10.15 3.85H6.3V2.8H10.15V3.85ZM0.7 16.45H5.6V17.5H0.7V16.45ZM6.3 16.8V4.55H10.15V16.8H6.3ZM10.15 0.7V2.1H6.3V0.7H10.15ZM5.6 3.5V4.55H0.7V3.5H5.6ZM0.7 18.2H5.6V20.3H0.7V18.2ZM6.3 20.3V18.9H10.15V20.3H6.3Z"/>
</mask>
<path d="M10.5 0H5.95C5.75671 0 5.6 0.156714 5.6 0.35V2.8H0.35C0.156714 2.8 0 2.95671 0 3.15V20.65C0 20.8433 0.156714 21 0.35 21H10.5C10.6933 21 10.85 20.8433 10.85 20.65V0.35C10.85 0.156714 10.6933 0 10.5 0ZM10.15 18.2H6.3V17.5H10.15V18.2ZM0.7 5.25H5.6V15.75H0.7V5.25ZM10.15 3.85H6.3V2.8H10.15V3.85ZM0.7 16.45H5.6V17.5H0.7V16.45ZM6.3 16.8V4.55H10.15V16.8H6.3ZM10.15 0.7V2.1H6.3V0.7H10.15ZM5.6 3.5V4.55H0.7V3.5H5.6ZM0.7 18.2H5.6V20.3H0.7V18.2ZM6.3 20.3V18.9H10.15V20.3H6.3Z" fill="white"/>
<path d="M5.6 2.8V22.8H25.6V2.8H5.6ZM10.15 18.2V38.2H30.15V18.2H10.15ZM6.3 18.2H-13.7V38.2H6.3V18.2ZM6.3 17.5V-2.50001H-13.7V17.5H6.3ZM10.15 17.5H30.15V-2.50001H10.15V17.5ZM0.7 5.25V-14.75H-19.3V5.25H0.7ZM5.6 5.25H25.6V-14.75H5.6V5.25ZM5.6 15.75V35.75H25.6V15.75H5.6ZM0.7 15.75H-19.3V35.75H0.7V15.75ZM10.15 3.85V23.85H30.15V3.85H10.15ZM6.3 3.85H-13.7V23.85H6.3V3.85ZM6.3 2.8V-17.2H-13.7V2.8H6.3ZM10.15 2.8H30.15V-17.2H10.15V2.8ZM0.7 16.45V-3.55001H-19.3V16.45H0.7ZM5.6 16.45H25.6V-3.55001H5.6V16.45ZM5.6 17.5V37.5H25.6V17.5H5.6ZM0.7 17.5H-19.3V37.5H0.7V17.5ZM6.3 16.8H-13.7V36.8H6.3V16.8ZM6.3 4.55V-15.45H-13.7V4.55H6.3ZM10.15 4.55H30.15V-15.45H10.15V4.55ZM10.15 16.8V36.8H30.15V16.8H10.15ZM10.15 0.7H30.15V-19.3H10.15V0.7ZM10.15 2.1V22.1H30.15V2.1H10.15ZM6.3 2.1H-13.7V22.1H6.3V2.1ZM6.3 0.7V-19.3H-13.7V0.7H6.3ZM5.6 3.5H25.6V-16.5H5.6V3.5ZM5.6 4.55V24.55H25.6V4.55H5.6ZM0.7 4.55H-19.3V24.55H0.7V4.55ZM0.7 3.5V-16.5H-19.3V3.5H0.7ZM0.7 18.2V-1.80001H-19.3V18.2H0.7ZM5.6 18.2H25.6V-1.80001H5.6V18.2ZM5.6 20.3V40.3H25.6V20.3H5.6ZM0.7 20.3H-19.3V40.3H0.7V20.3ZM6.3 20.3H-13.7V40.3H6.3V20.3ZM6.3 18.9V-1.10001H-13.7V18.9H6.3ZM10.15 18.9H30.15V-1.10001H10.15V18.9ZM10.15 20.3V40.3H30.15V20.3H10.15ZM10.5 -20H5.95V20H10.5V-20ZM5.95 -20C-5.28899 -20 -14.4 -10.889 -14.4 0.35H25.6C25.6 11.2024 16.8024 20 5.95 20V-20ZM-14.4 0.35V2.8H25.6V0.35H-14.4ZM5.6 -17.2H0.35V22.8H5.6V-17.2ZM0.35 -17.2C-10.889 -17.2 -20 -8.08898 -20 3.15H20C20 14.0024 11.2024 22.8 0.35 22.8V-17.2ZM-20 3.15V20.65H20V3.15H-20ZM-20 20.65C-20 31.889 -10.889 41 0.35 41V0.999992C11.2024 0.999992 20 9.79759 20 20.65H-20ZM0.35 41H10.5V0.999992H0.35V41ZM10.5 41C21.739 41 30.85 31.889 30.85 20.65H-9.15C-9.15 9.79759 -0.352415 0.999992 10.5 0.999992V41ZM30.85 20.65V0.35H-9.15V20.65H30.85ZM30.85 0.35C30.85 -10.889 21.739 -20 10.5 -20V20C-0.352415 20 -9.15 11.2024 -9.15 0.35H30.85ZM10.15 -1.80001H6.3V38.2H10.15V-1.80001ZM26.3 18.2V17.5H-13.7V18.2H26.3ZM6.3 37.5H10.15V-2.50001H6.3V37.5ZM-9.85 17.5V18.2H30.15V17.5H-9.85ZM0.7 25.25H5.6V-14.75H0.7V25.25ZM-14.4 5.25V15.75H25.6V5.25H-14.4ZM5.6 -4.25001H0.7V35.75H5.6V-4.25001ZM20.7 15.75V5.25H-19.3V15.75H20.7ZM10.15 -16.15H6.3V23.85H10.15V-16.15ZM26.3 3.85V2.8H-13.7V3.85H26.3ZM6.3 22.8H10.15V-17.2H6.3V22.8ZM-9.85 2.8V3.85H30.15V2.8H-9.85ZM0.7 36.45H5.6V-3.55001H0.7V36.45ZM-14.4 16.45V17.5H25.6V16.45H-14.4ZM5.6 -2.50001H0.7V37.5H5.6V-2.50001ZM20.7 17.5V16.45H-19.3V17.5H20.7ZM26.3 16.8V4.55H-13.7V16.8H26.3ZM6.3 24.55H10.15V-15.45H6.3V24.55ZM-9.85 4.55V16.8H30.15V4.55H-9.85ZM10.15 -3.20001H6.3V36.8H10.15V-3.20001ZM-9.85 0.7V2.1H30.15V0.7H-9.85ZM10.15 -17.9H6.3V22.1H10.15V-17.9ZM26.3 2.1V0.7H-13.7V2.1H26.3ZM6.3 20.7H10.15V-19.3H6.3V20.7ZM-14.4 3.5V4.55H25.6V3.5H-14.4ZM5.6 -15.45H0.7V24.55H5.6V-15.45ZM20.7 4.55V3.5H-19.3V4.55H20.7ZM0.7 23.5H5.6V-16.5H0.7V23.5ZM0.7 38.2H5.6V-1.80001H0.7V38.2ZM-14.4 18.2V20.3H25.6V18.2H-14.4ZM5.6 0.299993H0.7V40.3H5.6V0.299993ZM20.7 20.3V18.2H-19.3V20.3H20.7ZM26.3 20.3V18.9H-13.7V20.3H26.3ZM6.3 38.9H10.15V-1.10001H6.3V38.9ZM-9.85 18.9V20.3H30.15V18.9H-9.85ZM10.15 0.299993H6.3V40.3H10.15V0.299993Z" fill="white" mask="url(#path-1-inside-1)"/>
<mask id="path-3-inside-2" fill="white">
<path d="M20.9884 19.1618L16.7884 3.0618C16.765 2.97157 16.7066 2.89449 16.6259 2.8475C16.5454 2.80067 16.4495 2.78785 16.3595 2.81195L11.1095 4.21195C10.9235 4.26151 10.8125 4.45189 10.861 4.63817L15.061 20.7382C15.0844 20.8284 15.143 20.9055 15.2237 20.9523C15.3042 20.999 15.4001 21.0116 15.4899 20.9873L20.7399 19.5873C20.9255 19.5378 21.0365 19.3477 20.9884 19.1618ZM12.1839 6.93624L16.7577 5.71688L16.9222 6.34681L12.3488 7.56805L12.1839 6.93624ZM17.099 7.02596L19.1289 14.8126L14.5568 16.0325L12.5269 8.24532L17.099 7.02596ZM19.3071 15.4902L19.6655 16.8637L15.0918 18.0831L14.7347 16.7101L19.3071 15.4902ZM16.1999 3.57877L16.581 5.03995L12.0072 6.25897L11.6264 4.79847L16.1999 3.57877ZM15.6496 20.2212L15.2685 18.76L19.8422 17.5403L20.223 19.0008L15.6496 20.2212Z"/>
</mask>
<path d="M20.9884 19.1618L16.7884 3.0618C16.765 2.97157 16.7066 2.89449 16.6259 2.8475C16.5454 2.80067 16.4495 2.78785 16.3595 2.81195L11.1095 4.21195C10.9235 4.26151 10.8125 4.45189 10.861 4.63817L15.061 20.7382C15.0844 20.8284 15.143 20.9055 15.2237 20.9523C15.3042 20.999 15.4001 21.0116 15.4899 20.9873L20.7399 19.5873C20.9255 19.5378 21.0365 19.3477 20.9884 19.1618ZM12.1839 6.93624L16.7577 5.71688L16.9222 6.34681L12.3488 7.56805L12.1839 6.93624ZM17.099 7.02596L19.1289 14.8126L14.5568 16.0325L12.5269 8.24532L17.099 7.02596ZM19.3071 15.4902L19.6655 16.8637L15.0918 18.0831L14.7347 16.7101L19.3071 15.4902ZM16.1999 3.57877L16.581 5.03995L12.0072 6.25897L11.6264 4.79847L16.1999 3.57877ZM15.6496 20.2212L15.2685 18.76L19.8422 17.5403L20.223 19.0008L15.6496 20.2212Z" fill="white"/>
<path d="M16.7884 3.0618L-2.57051 8.08487L-2.56722 8.09756L-2.56391 8.11024L16.7884 3.0618ZM16.6259 2.8475L26.6942 -14.4334L26.6828 -14.44L16.6259 2.8475ZM16.3595 2.81195L21.5127 22.1366L21.5207 22.1345L21.5287 22.1324L16.3595 2.81195ZM11.1095 4.21195L16.2605 23.5372L16.2627 23.5366L11.1095 4.21195ZM10.861 4.63817L-8.49286 9.68082L-8.49135 9.68661L10.861 4.63817ZM15.061 20.7382L34.4199 15.7151L34.4166 15.7024L34.4133 15.6897L15.061 20.7382ZM15.2237 20.9523L5.18275 38.2491L5.19428 38.2558L15.2237 20.9523ZM15.4899 20.9873L10.3367 1.66264L10.307 1.67056L10.2773 1.67857L15.4899 20.9873ZM20.7399 19.5873L25.8932 38.912L25.8998 38.9103L20.7399 19.5873ZM12.1839 6.93624L7.03188 -12.3888L-12.1926 -7.26354L-7.1677 11.9874L12.1839 6.93624ZM16.7577 5.71688L36.1082 0.661391L31.0274 -18.786L11.6056 -13.6081L16.7577 5.71688ZM16.9222 6.34681L22.0821 25.6698L41.301 20.5377L36.2728 1.29132L16.9222 6.34681ZM12.3488 7.56805L-7.00278 12.6193L-1.92313 32.0799L17.5087 26.891L12.3488 7.56805ZM17.099 7.02596L36.4521 1.98071L31.3785 -17.4814L11.9451 -12.2986L17.099 7.02596ZM19.1289 14.8126L24.2847 34.1366L43.4985 29.0102L38.4821 9.76735L19.1289 14.8126ZM14.5568 16.0325L-4.79641 21.0774L0.277551 40.542L19.7127 35.3565L14.5568 16.0325ZM12.5269 8.24532L7.37308 -11.0792L-11.843 -5.95432L-6.82634 13.2903L12.5269 8.24532ZM19.3071 15.4902L38.6593 10.4409L33.5821 -9.01777L14.1516 -3.83388L19.3071 15.4902ZM19.6655 16.8637L24.8175 36.1888L44.0402 31.064L39.0176 11.8144L19.6655 16.8637ZM15.0918 18.0831L-4.2646 23.1161L0.7995 42.5919L20.2438 37.4081L15.0918 18.0831ZM14.7347 16.7101L9.57925 -2.61401L-9.62288 2.50895L-4.62161 21.7431L14.7347 16.7101ZM16.1999 3.57877L35.5524 -1.46875L30.4771 -20.9279L11.0461 -15.7458L16.1999 3.57877ZM16.581 5.03995L21.7317 24.3653L40.9542 19.242L35.9335 -0.00756502L16.581 5.03995ZM12.0072 6.25897L-7.3459 11.3045L-2.27289 30.7631L17.1579 25.5844L12.0072 6.25897ZM11.6264 4.79847L6.4727 -14.5261L-12.744 -9.40112L-7.72667 9.84396L11.6264 4.79847ZM15.6496 20.2212L-3.70302 25.2687L1.37301 44.7306L20.806 39.545L15.6496 20.2212ZM15.2685 18.76L10.1151 -0.564647L-9.10408 4.56061L-4.08412 23.8075L15.2685 18.76ZM19.8422 17.5403L39.1953 12.4948L34.1216 -6.96657L14.6888 -1.78435L19.8422 17.5403ZM20.223 19.0008L25.3794 38.3247L44.5927 33.1977L39.5761 13.9553L20.223 19.0008ZM40.3408 14.1134L36.1408 -1.98663L-2.56391 8.11024L1.63609 24.2102L40.3408 14.1134ZM36.1474 -1.96126C34.7829 -7.22001 31.3752 -11.7061 26.6942 -14.4334L6.5576 20.1284C2.03795 17.4951 -1.25285 13.1631 -2.57051 8.08487L36.1474 -1.96126ZM26.6828 -14.44C21.9993 -17.1646 16.4233 -17.9086 11.1902 -16.5085L21.5287 22.1324C16.4758 23.4843 11.0915 22.766 6.56903 20.135L26.6828 -14.44ZM11.2062 -16.5127L5.95623 -15.1127L16.2627 23.5366L21.5127 22.1366L11.2062 -16.5127ZM5.95844 -15.1133C-4.85015 -12.2324 -11.3175 -1.16011 -8.49286 9.68082L30.2148 -0.404481C32.9424 10.0639 26.6972 20.7554 16.2605 23.5372L5.95844 -15.1133ZM-8.49135 9.68661L-4.29135 25.7866L34.4133 15.6897L30.2133 -0.410268L-8.49135 9.68661ZM-4.29795 25.7612C-2.929 31.0372 0.493928 35.5272 5.18275 38.2491L25.2646 3.65549C29.7921 6.28374 33.0978 10.6196 34.4199 15.7151L-4.29795 25.7612ZM5.19428 38.2558C9.88284 40.9734 15.4649 41.7101 20.7026 40.2961L10.2773 1.67857C15.3352 0.313131 20.7255 1.02455 25.2531 3.64881L5.19428 38.2558ZM20.6432 40.312L25.8932 38.912L15.5867 0.262636L10.3367 1.66264L20.6432 40.312ZM25.8998 38.9103C36.6989 36.0265 43.1463 24.9757 40.353 14.1605L1.62386 24.1631C-1.07337 13.7198 5.15219 3.04901 15.58 0.26441L25.8998 38.9103ZM17.336 26.2613L21.9097 25.0419L11.6056 -13.6081L7.03188 -12.3888L17.336 26.2613ZM-2.59283 10.7724L-2.42826 11.4023L36.2728 1.29132L36.1082 0.661391L-2.59283 10.7724ZM11.7624 -12.9761L7.18902 -11.7549L17.5087 26.891L22.0821 25.6698L11.7624 -12.9761ZM31.7005 2.51684L31.5355 1.88503L-7.1677 11.9874L-7.00278 12.6193L31.7005 2.51684ZM-2.25422 12.0712L-0.224287 19.8579L38.4821 9.76735L36.4521 1.98071L-2.25422 12.0712ZM13.973 -4.5114L9.40098 -3.29153L19.7127 35.3565L24.2847 34.1366L13.973 -4.5114ZM33.9101 10.9875L31.8802 3.20038L-6.82634 13.2903L-4.79641 21.0774L33.9101 10.9875ZM17.6808 27.5699L22.2528 26.3505L11.9451 -12.2986L7.37308 -11.0792L17.6808 27.5699ZM-0.04498 20.5395L0.313394 21.913L39.0176 11.8144L38.6593 10.4409L-0.04498 20.5395ZM14.5135 -2.46129L9.93972 -1.24193L20.2438 37.4081L24.8175 36.1888L14.5135 -2.46129ZM34.4481 13.05L34.0911 11.6771L-4.62161 21.7431L-4.2646 23.1161L34.4481 13.05ZM19.8903 36.0342L24.4626 34.8143L14.1516 -3.83388L9.57925 -2.61401L19.8903 36.0342ZM-3.15273 8.62629L-2.77162 10.0875L35.9335 -0.00756502L35.5524 -1.46875L-3.15273 8.62629ZM11.4303 -14.2854L6.85652 -13.0664L17.1579 25.5844L21.7317 24.3653L11.4303 -14.2854ZM31.3603 1.21348L30.9796 -0.247015L-7.72667 9.84396L-7.3459 11.3045L31.3603 1.21348ZM16.7802 24.123L21.3536 22.9033L11.0461 -15.7458L6.4727 -14.5261L16.7802 24.123ZM35.0022 15.1737L34.621 13.7125L-4.08412 23.8075L-3.70302 25.2687L35.0022 15.1737ZM20.4219 38.0847L24.9956 36.865L14.6888 -1.78435L10.1151 -0.564647L20.4219 38.0847ZM0.489103 22.5858L0.869864 24.0463L39.5761 13.9553L39.1953 12.4948L0.489103 22.5858ZM15.0665 -0.323036L10.4931 0.89735L20.806 39.545L25.3794 38.3247L15.0665 -0.323036Z" fill="white" mask="url(#path-3-inside-2)"/>
<mask id="path-5-inside-3" fill="white">
<path d="M4.55039 6.29999H1.75039C1.5571 6.29999 1.40039 6.4567 1.40039 6.64999V9.44999C1.40039 9.64327 1.5571 9.79999 1.75039 9.79999H4.55039C4.74368 9.79999 4.90039 9.64327 4.90039 9.44999V6.64999C4.90039 6.4567 4.74368 6.29999 4.55039 6.29999ZM4.20039 9.09999H2.10039V6.99999H4.20039V9.09999Z"/>
</mask>
<path d="M4.55039 6.29999H1.75039C1.5571 6.29999 1.40039 6.4567 1.40039 6.64999V9.44999C1.40039 9.64327 1.5571 9.79999 1.75039 9.79999H4.55039C4.74368 9.79999 4.90039 9.64327 4.90039 9.44999V6.64999C4.90039 6.4567 4.74368 6.29999 4.55039 6.29999ZM4.20039 9.09999H2.10039V6.99999H4.20039V9.09999Z" fill="white"/>
<path d="M4.20039 9.09999V29.1H24.2004V9.09999H4.20039ZM2.10039 9.09999H-17.8996V29.1H2.10039V9.09999ZM2.10039 6.99999V-13H-17.8996V6.99999H2.10039ZM4.20039 6.99999H24.2004V-13H4.20039V6.99999ZM4.55039 -13.7H1.75039V26.3H4.55039V-13.7ZM1.75039 -13.7C-9.48859 -13.7 -18.5996 -4.58899 -18.5996 6.64999H21.4004C21.4004 17.5024 12.6028 26.3 1.75039 26.3V-13.7ZM-18.5996 6.64999V9.44999H21.4004V6.64999H-18.5996ZM-18.5996 9.44999C-18.5996 20.689 -9.48859 29.8 1.75039 29.8V-10.2C12.6028 -10.2 21.4004 -1.40242 21.4004 9.44999H-18.5996ZM1.75039 29.8H4.55039V-10.2H1.75039V29.8ZM4.55039 29.8C15.7894 29.8 24.9004 20.689 24.9004 9.44999H-15.0996C-15.0996 -1.40242 -6.30202 -10.2 4.55039 -10.2V29.8ZM24.9004 9.44999V6.64999H-15.0996V9.44999H24.9004ZM24.9004 6.64999C24.9004 -4.58899 15.7894 -13.7 4.55039 -13.7V26.3C-6.30202 26.3 -15.0996 17.5024 -15.0996 6.64999H24.9004ZM4.20039 -10.9H2.10039V29.1H4.20039V-10.9ZM22.1004 9.09999V6.99999H-17.8996V9.09999H22.1004ZM2.10039 27H4.20039V-13H2.10039V27ZM-15.7996 6.99999V9.09999H24.2004V6.99999H-15.7996Z" fill="white" mask="url(#path-5-inside-3)"/>
</svg>
