<svg width="20" height="19" viewBox="0 0 20 19" fill="none" xmlns="http://www.w3.org/2000/svg">
<path d="M9.19141 12.4687C9.34098 12.4683 9.48523 12.5243 9.59531 12.6255C9.70539 12.7268 9.77319 12.8659 9.78516 13.015V18.4537C9.77319 18.6028 9.70539 18.7419 9.59531 18.8432C9.48523 18.9445 9.34098 19.0005 9.19141 19H1.47266C1.32308 19.0005 1.17883 18.9445 1.06875 18.8432C0.958672 18.7419 0.890872 18.6028 0.878906 18.4537V13.015C0.890872 12.8659 0.958672 12.7268 1.06875 12.6255C1.17883 12.5243 1.32308 12.4683 1.47266 12.4687H9.19141ZM19.2852 7.71875C19.4426 7.71875 19.5937 7.78131 19.705 7.89265C19.8164 8.004 19.8789 8.15503 19.8789 8.3125V18.4062C19.8789 18.5637 19.8164 18.7147 19.705 18.8261C19.5937 18.9374 19.4426 19 19.2852 19H11.5664C11.4089 19 11.2579 18.9374 11.1466 18.8261C11.0352 18.7147 10.9727 18.5637 10.9727 18.4062V8.3125C10.9727 8.15503 11.0352 8.004 11.1466 7.89265C11.2579 7.78131 11.4089 7.71875 11.5664 7.71875H19.2852ZM8.59766 13.5553H2.06641V17.9134H8.59766V13.5553ZM18.6914 8.90625H12.1602V17.8125H18.6914V8.90625ZM9.19141 3.05252e-06C9.34888 3.05252e-06 9.4999 0.0625587 9.61125 0.173908C9.7226 0.285258 9.78516 0.436281 9.78516 0.593753V10.6875C9.78516 10.845 9.7226 10.996 9.61125 11.1073C9.4999 11.2187 9.34888 11.2812 9.19141 11.2812H1.47266C1.31518 11.2812 1.16416 11.2187 1.05281 11.1073C0.941462 10.996 0.878906 10.845 0.878906 10.6875V0.593753C0.878906 0.436281 0.941462 0.285258 1.05281 0.173908C1.16416 0.0625587 1.31518 3.05252e-06 1.47266 3.05252e-06H9.19141ZM8.59766 1.1875H2.06641V10.0937H8.59766V1.1875ZM19.2852 3.05252e-06C19.4347 -0.000476306 19.579 0.0555178 19.6891 0.156791C19.7991 0.258064 19.8669 0.397154 19.8789 0.546253V5.985C19.8669 6.1341 19.7991 6.27319 19.6891 6.37446C19.579 6.47574 19.4347 6.53173 19.2852 6.53125H11.5664C11.4168 6.53173 11.2726 6.47574 11.1625 6.37446C11.0524 6.27319 10.9846 6.1341 10.9727 5.985V0.546253C10.9846 0.397154 11.0524 0.258064 11.1625 0.156791C11.2726 0.0555178 11.4168 -0.000476306 11.5664 3.05252e-06H19.2852ZM18.6914 1.08657H12.1602V5.44469H18.6914V1.08657Z" fill="none"/>
</svg>
