<svg width="20" height="20" viewBox="0 0 20 20" fill="none" xmlns="http://www.w3.org/2000/svg">
<path d="M19.2523 9.39389C18.7802 9.39389 18.3082 9.39389 17.8362 9.39389C16.7109 9.39389 15.5856 9.39389 14.4603 9.39389C13.0956 9.39389 11.7309 9.39389 10.3685 9.39389C9.1895 9.39389 8.01051 9.39389 6.83152 9.39389C6.26105 9.39389 5.68833 9.3827 5.11562 9.39389C5.10667 9.39389 5.09996 9.39389 5.09101 9.39389C4.79794 9.39389 4.51829 9.65116 4.53171 9.95318C4.54514 10.2552 4.7778 10.5125 5.09101 10.5125C5.56305 10.5125 6.03509 10.5125 6.50713 10.5125C7.63243 10.5125 8.75773 10.5125 9.88302 10.5125C11.2477 10.5125 12.6124 10.5125 13.9748 10.5125C15.1538 10.5125 16.3328 10.5125 17.5118 10.5125C18.0822 10.5125 18.655 10.5237 19.2277 10.5125C19.2366 10.5125 19.2433 10.5125 19.2523 10.5125C19.5454 10.5125 19.825 10.2552 19.8116 9.95318C19.7982 9.65116 19.5655 9.39389 19.2523 9.39389Z" fill="white"/>
<path d="M16.6503 13.3469C16.9859 13.0113 17.3237 12.6735 17.6593 12.338C18.1985 11.7988 18.7376 11.2596 19.2768 10.7205C19.3998 10.5974 19.5229 10.4744 19.6459 10.3514C19.8584 10.1388 19.8607 9.77416 19.6459 9.55939C19.3103 9.22382 18.9725 8.88601 18.6369 8.55043C18.0978 8.01127 17.5586 7.47212 17.0195 6.93296C16.8964 6.80991 16.7734 6.68687 16.6503 6.56383C16.4423 6.35577 16.0642 6.34235 15.8584 6.56383C15.6526 6.78754 15.6369 7.1343 15.8584 7.35578C16.194 7.69136 16.5318 8.02917 16.8673 8.36475C17.4065 8.9039 17.9457 9.44306 18.4848 9.98222C18.6079 10.1053 18.7309 10.2283 18.8539 10.3514C18.8539 10.0874 18.8539 9.82338 18.8539 9.55939C18.5184 9.89497 18.1806 10.2328 17.845 10.5684C17.3058 11.1075 16.7667 11.6467 16.2275 12.1858C16.1045 12.3089 15.9814 12.4319 15.8584 12.555C15.6503 12.763 15.6369 13.1411 15.8584 13.3469C16.0821 13.5505 16.4289 13.5684 16.6503 13.3469Z" fill="white"/>
<path d="M12.6982 15.0875C12.6982 15.9756 12.6982 16.8615 12.6982 17.7497C12.6982 18.0629 12.7049 18.3761 12.6982 18.6915C12.6982 18.705 12.6915 18.7385 12.6959 18.7542C12.6736 18.6513 12.7161 18.6446 12.6937 18.7229C12.6892 18.7408 12.678 18.7631 12.6758 18.7788C12.6892 18.6669 12.7205 18.6871 12.6803 18.7497C12.6713 18.7654 12.6557 18.7833 12.6489 18.7989C12.6937 18.696 12.7161 18.7184 12.6713 18.7631C12.6266 18.8079 12.6064 18.7877 12.7071 18.7408C12.6847 18.7497 12.6534 18.7743 12.6333 18.7877C12.5483 18.8437 12.7384 18.7631 12.6736 18.7721C12.6512 18.7766 12.6243 18.7855 12.602 18.7922C12.5214 18.8191 12.6489 18.7833 12.6624 18.7877C12.6691 18.79 12.5953 18.79 12.5997 18.79C12.5975 18.79 12.5953 18.79 12.593 18.79C12.546 18.79 12.4991 18.79 12.4521 18.79C11.7832 18.79 11.1143 18.79 10.4476 18.79C9.32675 18.79 8.20593 18.79 7.08511 18.79C5.94639 18.79 4.80767 18.79 3.66672 18.79C2.93293 18.79 2.19914 18.79 1.46534 18.79C1.39599 18.79 1.3244 18.79 1.25505 18.79C1.24163 18.79 1.2282 18.79 1.21478 18.79C1.19465 18.79 1.1678 18.7833 1.1499 18.7877C1.25281 18.7676 1.264 18.8101 1.21031 18.7922C1.18794 18.7855 1.14767 18.7676 1.1253 18.7654C1.13872 18.7654 1.24834 18.8302 1.17899 18.7855C1.16333 18.7743 1.05147 18.7072 1.13872 18.7654C1.21926 18.8191 1.14767 18.7654 1.13201 18.7519C1.0716 18.7005 1.15885 18.7855 1.16333 18.7989C1.15438 18.7766 1.12977 18.7452 1.11635 18.7251C1.08726 18.6826 1.12082 18.6692 1.13648 18.7788C1.13424 18.7564 1.12082 18.7318 1.11411 18.7094C1.09845 18.6513 1.12082 18.6244 1.11635 18.7542C1.11635 18.734 1.11411 18.7117 1.11411 18.6915C1.11411 18.6848 1.11411 18.6781 1.11411 18.6714C1.11411 18.6289 1.11411 18.5864 1.11411 18.5416C1.11411 18.0293 1.11411 17.5193 1.11411 17.007C1.11411 16.0897 1.11411 15.1725 1.11411 14.253C1.11411 13.1098 1.11411 11.9666 1.11411 10.8234C1.11411 9.63772 1.11411 8.44978 1.11411 7.26408C1.11411 6.21261 1.11411 5.15891 1.11411 4.10744C1.11411 3.37812 1.11411 2.64881 1.11411 1.91949C1.11411 1.73157 1.11411 1.54141 1.11411 1.35349C1.11411 1.31322 1.11411 1.27295 1.11411 1.23268C1.11411 1.22821 1.11411 1.22149 1.11411 1.21702C1.11411 1.22597 1.11635 1.14543 1.11635 1.15438C1.13648 1.25729 1.09397 1.26847 1.11187 1.21478C1.11858 1.19241 1.13648 1.15214 1.13872 1.12977C1.13872 1.14319 1.07384 1.25281 1.11858 1.18346C1.13201 1.16556 1.14767 1.14319 1.15662 1.12082C1.1857 1.06265 1.05818 1.22149 1.13424 1.15662C1.14096 1.15214 1.17004 1.12753 1.17675 1.11635C1.10069 1.17228 1.08503 1.18346 1.13201 1.1499C1.14767 1.13872 1.16556 1.12977 1.18122 1.12082C1.22373 1.09174 1.23715 1.1253 1.12753 1.14096C1.1499 1.13872 1.17451 1.1253 1.19688 1.11858C1.25505 1.10292 1.2819 1.1253 1.15214 1.12082C1.17228 1.12082 1.19465 1.11858 1.21478 1.11858C1.21702 1.11858 1.21926 1.11858 1.22149 1.11858C1.23715 1.11858 1.25281 1.11858 1.26847 1.11858C1.3423 1.11858 1.41613 1.11858 1.48995 1.11858C1.78973 1.11858 2.08728 1.11858 2.38706 1.11858C3.38484 1.11858 4.38485 1.11858 5.38263 1.11858C6.56385 1.11858 7.74507 1.11858 8.9263 1.11858C9.86367 1.11858 10.801 1.11858 11.7384 1.11858C11.9823 1.11858 12.2261 1.11858 12.4722 1.11858C12.5147 1.11858 12.5572 1.11858 12.5997 1.11858C12.6154 1.11858 12.6333 1.12082 12.6489 1.12082C12.7205 1.12082 12.5035 1.08279 12.6042 1.11635C12.6221 1.12306 12.6422 1.12753 12.6624 1.13201C12.7653 1.15662 12.5483 1.06265 12.6355 1.12306C12.6579 1.13872 12.6847 1.15885 12.7093 1.17004C12.5997 1.11858 12.631 1.10292 12.6624 1.13872C12.7071 1.19017 12.6982 1.21702 12.6512 1.11187C12.6579 1.12753 12.6736 1.14543 12.6825 1.16109C12.7205 1.22597 12.6915 1.24387 12.678 1.13201C12.6803 1.15885 12.7161 1.30874 12.7049 1.20136C12.6937 1.09621 12.7026 1.20136 12.7026 1.21926C12.7205 2.12531 12.7026 3.0336 12.7026 3.93965C12.7026 4.23272 12.7026 4.52803 12.7026 4.8211C12.7026 5.11417 12.9599 5.39381 13.2619 5.38039C13.5639 5.36697 13.8212 5.1343 13.8212 4.8211C13.8212 3.91281 13.8212 3.00675 13.8212 2.09846C13.8212 1.75394 13.8503 1.39376 13.8056 1.05147C13.725 0.449671 13.206 0.0111858 12.6042 0C12.5684 0 12.5326 0 12.4968 0C11.8413 0 11.1881 0 10.5326 0C9.40729 0 8.28199 0 7.1567 0C5.99785 0 4.83899 0 3.68238 0C2.93964 0 2.19914 0 1.4564 0C1.13648 0 0.823278 0.00894864 0.545869 0.203582C0.203582 0.442959 0.0067115 0.807618 0 1.22597C0 1.26176 0 1.29756 0 1.33335C0 1.83448 0 2.33337 0 2.83449C0 3.7562 0 4.67568 0 5.59739C0 6.76072 0 7.92181 0 9.08514C0 10.2865 0 11.4879 0 12.6892C0 13.7496 0 14.8101 0 15.8727C0 16.5998 0 17.3269 0 18.0539C0 18.2329 0 18.4119 0 18.5931C0 18.6267 0 18.658 0 18.6915C0.0067115 19.1323 0.239377 19.5528 0.633118 19.7654C0.90829 19.913 1.18346 19.9153 1.47877 19.9153C1.77855 19.9153 2.07609 19.9153 2.37587 19.9153C3.38707 19.9153 4.39603 19.9153 5.40723 19.9153C6.60859 19.9153 7.81219 19.9153 9.01355 19.9153C9.94868 19.9153 10.8816 19.9153 11.8167 19.9153C12.0494 19.9153 12.2798 19.9153 12.5125 19.9153C12.5438 19.9153 12.5751 19.9153 12.6064 19.9153C13.2776 19.9018 13.81 19.3694 13.8235 18.6982C13.8414 17.7989 13.8235 16.8951 13.8235 15.9957C13.8235 15.696 13.8235 15.394 13.8235 15.0942C13.8235 14.8011 13.5662 14.5215 13.2642 14.5349C12.9532 14.5416 12.6982 14.7743 12.6982 15.0875Z" fill="white"/>
</svg>
