<svg width="21" height="18" viewBox="0 0 21 18" fill="none" xmlns="http://www.w3.org/2000/svg">
<path d="M17.5375 14.9039C17.4883 14.9061 17.4391 14.8981 17.3932 14.8803C17.3472 14.8625 17.3055 14.8354 17.2706 14.8007L13.5197 11.032H7.19228C6.42084 11.032 5.68095 10.7258 5.13513 10.1807C4.58931 9.6355 4.28219 8.89598 4.28125 8.12455V2.91103C4.28219 2.13927 4.58919 1.39938 5.13491 0.853661C5.68063 0.307941 6.42052 0.000941751 7.19228 0H17.5624C18.3341 0.000941751 19.074 0.307941 19.6197 0.853661C20.1655 1.39938 20.4725 2.13927 20.4734 2.91103V8.12455C20.472 8.83865 20.2085 9.52739 19.7329 10.0601C19.2573 10.5927 18.6027 10.9323 17.8933 11.0142V14.548C17.893 14.6183 17.8718 14.6869 17.8326 14.7451C17.7933 14.8034 17.7377 14.8487 17.6727 14.8754C17.6299 14.8937 17.584 14.9033 17.5375 14.9039ZM7.19228 0.711743C6.60899 0.711743 6.0496 0.943453 5.63715 1.3559C5.2247 1.76835 4.99299 2.32774 4.99299 2.91103V8.12455C4.99394 8.70722 5.22606 9.2657 5.63841 9.67738C6.05075 10.0891 6.60961 10.3203 7.19228 10.3203H13.6656C13.7127 10.3205 13.7592 10.33 13.8026 10.3483C13.846 10.3667 13.8853 10.3934 13.9183 10.427L17.1816 13.6904V10.6761C17.1816 10.5818 17.2191 10.4912 17.2858 10.4245C17.3526 10.3578 17.4431 10.3203 17.5375 10.3203C17.8278 10.3226 18.1158 10.2676 18.3848 10.1585C18.6539 10.0493 18.8987 9.88811 19.1054 9.68412C19.312 9.48014 19.4763 9.23737 19.589 8.96975C19.7016 8.70212 19.7603 8.4149 19.7617 8.12455V2.91103C19.7617 2.32774 19.53 1.76835 19.1175 1.3559C18.7051 0.943453 18.1457 0.711743 17.5624 0.711743H7.19228Z" fill="white"/>
<path d="M2.93594 18C2.88933 18.0004 2.84318 17.9907 2.80071 17.9715C2.73572 17.9448 2.68009 17.8995 2.64082 17.8412C2.60156 17.7829 2.58042 17.7144 2.58007 17.6441V14.1103C1.871 14.0276 1.21683 13.6878 0.741378 13.1553C0.265922 12.6228 0.00215801 11.9345 0 11.2206V6.0071C0.000941751 5.23533 0.307941 4.49545 0.853661 3.94973C1.39938 3.40401 2.13927 3.09701 2.91103 3.09607H4.63701C4.73139 3.09607 4.82191 3.13356 4.88865 3.2003C4.95538 3.26704 4.99288 3.35756 4.99288 3.45194V8.12453C4.99382 8.7072 5.22595 9.26569 5.63829 9.67736C6.05063 10.089 6.60949 10.3203 7.19216 10.3203H13.6655C13.7126 10.3205 13.7591 10.33 13.8025 10.3483C13.8459 10.3666 13.8852 10.3934 13.9181 10.427L15.7402 12.2491C15.7951 12.3043 15.8303 12.3759 15.8406 12.453C15.8509 12.5301 15.8356 12.6085 15.7971 12.6761C15.5426 13.1184 15.1761 13.4858 14.7343 13.7413C14.2926 13.9969 13.7914 14.1315 13.2811 14.1316H6.95017L3.18861 17.8968C3.15536 17.9298 3.11592 17.9558 3.07256 17.9736C3.0292 17.9913 2.98278 18.0002 2.93594 18ZM2.91103 3.80781C2.32774 3.80781 1.76835 4.03952 1.3559 4.45197C0.943453 4.86441 0.711743 5.42381 0.711743 6.0071V11.2206C0.712684 11.8036 0.944696 12.3625 1.35694 12.7747C1.76918 13.1869 2.32803 13.419 2.91103 13.4199C3.0081 13.4188 3.10184 13.4552 3.17276 13.5215C3.24368 13.5878 3.28632 13.6789 3.29181 13.7758V16.7864L6.55515 13.5231C6.58841 13.4901 6.62784 13.464 6.6712 13.4463C6.71456 13.4286 6.76099 13.4196 6.80782 13.4199H13.2811C13.6195 13.4205 13.9535 13.3431 14.2571 13.1937C14.5608 13.0444 14.8259 12.8271 15.032 12.5587L13.5196 11.0427H7.19216C6.42073 11.0427 5.68083 10.7365 5.13501 10.1913C4.58919 9.64617 4.28208 8.90665 4.28113 8.13521V3.80781H2.91103Z" fill="white"/>
<path d="M17.8152 3.22065H7.07853C6.98414 3.22065 6.89363 3.18316 6.82689 3.11642C6.76015 3.04968 6.72266 2.95917 6.72266 2.86478C6.72266 2.7704 6.76015 2.67988 6.82689 2.61314C6.89363 2.5464 6.98414 2.50891 7.07853 2.50891H17.8152C17.9096 2.50891 18.0001 2.5464 18.0668 2.61314C18.1336 2.67988 18.171 2.7704 18.171 2.86478C18.171 2.95917 18.1336 3.04968 18.0668 3.11642C18.0001 3.18316 17.9096 3.22065 17.8152 3.22065Z" fill="white"/>
<path d="M17.8152 5.51954H7.07853C6.98414 5.51954 6.89363 5.48205 6.82689 5.41531C6.76015 5.34857 6.72266 5.25805 6.72266 5.16367C6.72266 5.06929 6.76015 4.97877 6.82689 4.91203C6.89363 4.84529 6.98414 4.8078 7.07853 4.8078H17.8152C17.9096 4.8078 18.0001 4.84529 18.0668 4.91203C18.1336 4.97877 18.171 5.06929 18.171 5.16367C18.171 5.25805 18.1336 5.34857 18.0668 5.41531C18.0001 5.48205 17.9096 5.51954 17.8152 5.51954Z" fill="white"/>
<path d="M17.8153 7.89326H11.6801C11.5857 7.89326 11.4952 7.85577 11.4285 7.78903C11.3617 7.72229 11.3242 7.63177 11.3242 7.53739C11.3242 7.44301 11.3617 7.35249 11.4285 7.28575C11.4952 7.21901 11.5857 7.18152 11.6801 7.18152H17.8153C17.9097 7.18152 18.0002 7.21901 18.067 7.28575C18.1337 7.35249 18.1712 7.44301 18.1712 7.53739C18.1712 7.63177 18.1337 7.72229 18.067 7.78903C18.0002 7.85577 17.9097 7.89326 17.8153 7.89326Z" fill="white"/>
</svg>
