<svg width="20" height="21" viewBox="0 0 20 21" fill="none" xmlns="http://www.w3.org/2000/svg">
<path d="M5.41409 7.7606H7.2213C7.22738 7.66266 7.23047 7.56391 7.23047 7.46443C7.23047 7.36496 7.22738 7.26621 7.2213 7.16827L5.41409 7.16827C5.40801 7.26621 5.40492 7.36496 5.40492 7.46443C5.40492 7.56391 5.40801 7.66266 5.41409 7.7606Z" fill="white" stroke="white" stroke-width="10"/>
<path d="M5.41409 9.84171H7.2213C7.22738 9.74377 7.23047 9.64502 7.23047 9.54555C7.23047 9.44608 7.22738 9.34733 7.2213 9.24939L5.41409 9.24939C5.40801 9.34733 5.40492 9.44608 5.40492 9.54555C5.40492 9.64502 5.40801 9.74377 5.41409 9.84171Z" fill="white" stroke="white" stroke-width="10"/>
<path d="M5.41409 11.9228H7.2213C7.22738 11.8249 7.23047 11.7261 7.23047 11.6267C7.23047 11.5272 7.22738 11.4284 7.2213 11.3305H5.41409C5.40801 11.4284 5.40492 11.5272 5.40492 11.6267C5.40492 11.7261 5.40801 11.8249 5.41409 11.9228Z" fill="white" stroke="white" stroke-width="10"/>
<path d="M7.2213 13.4117L5.41409 13.4117C5.40801 13.5096 5.40492 13.6084 5.40492 13.7078C5.40492 13.8073 5.40801 13.9061 5.41409 14.004H7.2213C7.22738 13.9061 7.23047 13.8073 7.23047 13.7078C7.23047 13.6084 7.22738 13.5096 7.2213 13.4117Z" fill="white" stroke="white" stroke-width="10"/>
<path d="M2.52663 16.4617C2.36305 16.4617 2.23047 16.5943 2.23047 16.7578C2.23047 16.9214 2.36305 17.054 2.52663 17.054H6.32739C6.49097 17.054 6.62355 16.9214 6.62355 16.7578C6.62355 16.5943 6.49097 16.4617 6.32739 16.4617H2.52663Z" fill="white" stroke="white" stroke-width="10"/>
<path d="M8.6455 2.63447H8.67533H10.9896C10.94 2.43101 10.8759 2.23318 10.7987 2.04211L8.83647 2.04211C8.77388 2.19692 8.71997 2.35616 8.67533 2.51924C8.66488 2.55744 8.65493 2.59586 8.6455 2.63447ZM10.906 4.03487C10.8737 4.13522 10.8379 4.23398 10.7987 4.33099H8.83641C8.79719 4.23398 8.76138 4.13522 8.72912 4.03487C8.72911 4.03486 8.72911 4.03484 8.72911 4.03483C8.70991 3.97512 8.69198 3.91484 8.67533 3.85402C8.665 3.81626 8.65516 3.77829 8.64583 3.74012C8.65553 3.73916 8.66537 3.73867 8.67533 3.73867H10.9896C10.9652 3.8388 10.9373 3.93756 10.906 4.03483C10.906 4.03484 10.906 4.03486 10.906 4.03487Z" fill="white" stroke="white" stroke-width="10"/>
<mask id="path-7-inside-1" fill="white">
<path d="M15.7371 18.0601C15.5735 18.0601 15.4409 18.1928 15.4409 18.3563V18.7552C15.4409 19.2365 15.0493 19.6282 14.5678 19.6282H1.4654C0.984016 19.6282 0.592321 19.2366 0.592321 18.7552V4.51914C0.592321 4.45505 0.599825 4.39217 0.613213 4.331H3.30994C3.87295 4.331 4.331 3.87295 4.331 3.30994V0.613253C4.39217 0.599864 4.45501 0.592361 4.5191 0.592361H14.5677C15.0492 0.592361 15.4409 0.984016 15.4409 1.46544V5.40853C15.4409 5.57212 15.5734 5.70469 15.737 5.70469C15.9006 5.70469 16.0332 5.57208 16.0332 5.40853V1.4654C16.0332 0.657406 15.3758 0 14.5678 0H4.51914C4.12773 0 3.75969 0.152444 3.48292 0.429214L0.429174 3.48296C0.152405 3.75973 0 4.12773 0 4.51918V18.7552C0 19.5632 0.657367 20.2206 1.4654 20.2206H14.5678C15.3758 20.2206 16.0332 19.5632 16.0332 18.7552V18.3563C16.0332 18.1928 15.9006 18.0601 15.7371 18.0601ZM3.73868 1.01119V3.30994C3.73868 3.54634 3.54634 3.73868 3.30994 3.73868H1.01119L3.73868 1.01119Z"/>
</mask>
<path d="M15.7371 18.0601C15.5735 18.0601 15.4409 18.1928 15.4409 18.3563V18.7552C15.4409 19.2365 15.0493 19.6282 14.5678 19.6282H1.4654C0.984016 19.6282 0.592321 19.2366 0.592321 18.7552V4.51914C0.592321 4.45505 0.599825 4.39217 0.613213 4.331H3.30994C3.87295 4.331 4.331 3.87295 4.331 3.30994V0.613253C4.39217 0.599864 4.45501 0.592361 4.5191 0.592361H14.5677C15.0492 0.592361 15.4409 0.984016 15.4409 1.46544V5.40853C15.4409 5.57212 15.5734 5.70469 15.737 5.70469C15.9006 5.70469 16.0332 5.57208 16.0332 5.40853V1.4654C16.0332 0.657406 15.3758 0 14.5678 0H4.51914C4.12773 0 3.75969 0.152444 3.48292 0.429214L0.429174 3.48296C0.152405 3.75973 0 4.12773 0 4.51918V18.7552C0 19.5632 0.657367 20.2206 1.4654 20.2206H14.5678C15.3758 20.2206 16.0332 19.5632 16.0332 18.7552V18.3563C16.0332 18.1928 15.9006 18.0601 15.7371 18.0601ZM3.73868 1.01119V3.30994C3.73868 3.54634 3.54634 3.73868 3.30994 3.73868H1.01119L3.73868 1.01119Z" fill="white"/>
<path d="M0.613213 4.331V-5.669H-7.43496L-9.15558 2.19309L0.613213 4.331ZM4.331 0.613253L2.19309 -9.15554L-5.669 -7.43492V0.613253H4.331ZM16.0332 1.4654L6.03319 1.46491V1.4654H16.0332ZM3.73868 1.01119H13.7387V-23.1309L-3.33239 -6.05988L3.73868 1.01119ZM1.01119 3.73868L-6.05988 -3.33239L-23.1309 13.7387H1.01119V3.73868ZM15.7371 8.06015C10.0497 8.06015 5.44091 12.6708 5.44091 18.3563H25.4409C25.4409 23.7147 21.0973 28.0601 15.7371 28.0601V8.06015ZM5.44091 18.3563V18.7552H25.4409V18.3563H5.44091ZM5.44091 18.7552C5.44091 13.7137 9.52641 9.62823 14.5678 9.62823V29.6282C20.5721 29.6282 25.4409 24.7594 25.4409 18.7552H5.44091ZM14.5678 9.62823H1.4654V29.6282H14.5678V9.62823ZM1.4654 9.62823C6.50657 9.62823 10.5923 13.7134 10.5923 18.7552H-9.40768C-9.40768 24.7597 -4.53854 29.6282 1.4654 29.6282V9.62823ZM10.5923 18.7552V4.51914H-9.40768V18.7552H10.5923ZM10.5923 4.51914C10.5923 5.23834 10.5079 5.89369 10.382 6.46891L-9.15558 2.19309C-9.30824 2.89066 -9.40768 3.67175 -9.40768 4.51914H10.5923ZM0.613213 14.331H3.30994V-5.669H0.613213V14.331ZM3.30994 14.331C9.3958 14.331 14.331 9.3958 14.331 3.30994H-5.669C-5.669 -1.64989 -1.64989 -5.669 3.30994 -5.669V14.331ZM14.331 3.30994V0.613253H-5.669V3.30994H14.331ZM6.46891 10.382C5.89417 10.5078 5.23876 10.5924 4.5191 10.5924V-9.40764C3.67125 -9.40764 2.89017 -9.3081 2.19309 -9.15554L6.46891 10.382ZM4.5191 10.5924H14.5677V-9.40764H4.5191V10.5924ZM14.5677 10.5924C9.52691 10.5924 5.44087 6.50745 5.44087 1.46544H25.4409C25.4409 -4.53942 20.5714 -9.40764 14.5677 -9.40764V10.5924ZM5.44087 1.46544V5.40853H25.4409V1.46544H5.44087ZM5.44087 5.40853C5.44087 11.0949 10.0506 15.7047 15.737 15.7047V-4.29531C21.0963 -4.29531 25.4409 0.0492953 25.4409 5.40853H5.44087ZM15.737 15.7047C21.4244 15.7047 26.0332 11.094 26.0332 5.40853H6.03319C6.03319 0.0501246 10.3769 -4.29531 15.737 -4.29531V15.7047ZM26.0332 5.40853V1.4654H6.03319V5.40853H26.0332ZM26.0332 1.46589C26.0335 -4.8656 20.8984 -10 14.5678 -10V10C9.85324 10 6.03296 6.18041 6.03319 1.46491L26.0332 1.46589ZM14.5678 -10H4.51914V10H14.5678V-10ZM4.51914 -10C1.47563 -10 -1.43597 -8.79403 -3.58815 -6.64185L10.554 7.50028C8.95534 9.09892 6.77982 10 4.51914 10V-10ZM-3.58815 -6.64185L-6.64189 -3.58811L7.50024 10.554L10.554 7.50028L-3.58815 -6.64185ZM-6.64189 -3.58811C-8.79446 -1.43554 -10 1.47618 -10 4.51918H10C10 6.77927 9.09927 8.955 7.50024 10.554L-6.64189 -3.58811ZM-10 4.51918V18.7552H10V4.51918H-10ZM-10 18.7552C-10 25.0861 -4.86549 30.2206 1.4654 30.2206V10.2206C6.18022 10.2206 10 14.0404 10 18.7552H-10ZM1.4654 30.2206H14.5678V10.2206H1.4654V30.2206ZM14.5678 30.2206C20.8985 30.2206 26.0332 25.0862 26.0332 18.7552H6.03323C6.03323 14.0402 9.85314 10.2206 14.5678 10.2206V30.2206ZM26.0332 18.7552V18.3563H6.03323V18.7552H26.0332ZM26.0332 18.3563C26.0332 12.6717 21.4252 8.06015 15.7371 8.06015V28.0601C10.3761 28.0601 6.03323 23.7139 6.03323 18.3563H26.0332ZM-6.26132 1.01119V3.30994H13.7387V1.01119H-6.26132ZM-6.26132 3.30994C-6.26132 -1.9765 -1.9765 -6.26132 3.30994 -6.26132V13.7387C9.06919 13.7387 13.7387 9.06919 13.7387 3.30994H-6.26132ZM3.30994 -6.26132H1.01119V13.7387H3.30994V-6.26132ZM8.08226 10.8097L10.8097 8.08226L-3.33239 -6.05988L-6.05988 -3.33239L8.08226 10.8097Z" fill="white" mask="url(#path-7-inside-1)"/>
<mask id="path-9-inside-2" fill="white">
<path d="M19.7939 10.5842C20.0018 10.279 20.0556 9.90262 19.9415 9.55144C19.8274 9.20027 19.5626 8.92737 19.2151 8.80273C18.9845 8.72003 18.8307 8.50834 18.8234 8.26349C18.8122 7.89442 18.6344 7.55825 18.3357 7.3412C18.037 7.12418 17.6622 7.05906 17.3079 7.16245C17.0726 7.23109 16.8239 7.15021 16.674 6.95649C16.4481 6.66444 16.1067 6.49695 15.7374 6.49695C15.3682 6.49695 15.0268 6.66444 14.8008 6.95649C14.6509 7.15025 14.402 7.23101 14.1669 7.16245C13.8126 7.05898 13.4379 7.12418 13.1391 7.3412C12.8404 7.55825 12.6627 7.89438 12.6515 8.26345C12.6441 8.5083 12.4903 8.71995 12.2597 8.80269C11.9122 8.92733 11.6474 9.20027 11.5333 9.5514C11.4192 9.90258 11.473 10.279 11.6809 10.5842C11.8188 10.7866 11.8188 11.0482 11.6809 11.2507C11.473 11.5558 11.4192 11.9323 11.5333 12.2834C11.6474 12.6346 11.9122 12.9075 12.2597 13.0322C12.4903 13.1149 12.6441 13.3266 12.6515 13.5714C12.6618 13.9109 12.8174 14.2299 13.0784 14.4465C13.2506 14.5895 13.4576 14.6789 13.6741 14.7088V17.4054C13.6741 17.6329 13.7975 17.8432 13.9961 17.9541C14.1945 18.065 14.4384 18.06 14.6322 17.9407L15.7185 17.272C15.7362 17.261 15.7467 17.266 15.7565 17.272L16.8427 17.9407C17.0365 18.0599 17.2803 18.0651 17.4788 17.9541C17.6775 17.8431 17.8009 17.6328 17.8009 17.4053V14.7088C18.0173 14.6789 18.2242 14.5894 18.3965 14.4465C18.6576 14.2299 18.8132 13.911 18.8235 13.5714C18.8308 13.3265 18.9846 13.1148 19.2152 13.0321C19.5628 12.9075 19.8276 12.6346 19.9416 12.2834C20.0557 11.9322 20.002 11.5558 19.7941 11.2506C19.656 11.0483 19.656 10.7867 19.7939 10.5842ZM17.1531 17.4362L16.0669 16.7675C15.865 16.6433 15.61 16.6431 15.4079 16.7675L14.3217 17.4362C14.2969 17.4513 14.2664 17.4339 14.2664 17.4053V14.6526C14.47 14.629 14.6719 14.7119 14.8008 14.8784C15.0268 15.1704 15.3682 15.3379 15.7375 15.3379C16.1067 15.3379 16.4481 15.1704 16.674 14.8784C16.8029 14.7118 17.0048 14.629 17.2084 14.6526V17.4053C17.2084 17.4341 17.1775 17.4513 17.1531 17.4362ZM19.3044 11.5843C19.4084 11.7368 19.4352 11.9249 19.3782 12.1004C19.3212 12.2759 19.1888 12.4123 19.0151 12.4747C18.5537 12.6401 18.2461 13.0636 18.2313 13.5535C18.226 13.7258 18.1503 13.881 18.0181 13.9907C17.8695 14.1141 17.6683 14.1606 17.4739 14.1039C17.0034 13.9666 16.5055 14.1284 16.2055 14.516C16.0926 14.6619 15.9219 14.7456 15.7374 14.7456C15.5529 14.7456 15.3822 14.6619 15.2692 14.516C15.0402 14.2199 14.6958 14.0556 14.3363 14.0556C14.225 14.0556 14.1122 14.0714 14.001 14.1038C13.8047 14.161 13.604 14.1131 13.4566 13.9907C13.3244 13.881 13.2487 13.7257 13.2435 13.5535C13.2287 13.0636 12.921 12.6401 12.4596 12.4746C12.2859 12.4123 12.1536 12.2759 12.0966 12.1004C12.0395 11.9249 12.0664 11.7368 12.1703 11.5842C12.4463 11.1792 12.4463 10.6558 12.1703 10.2507C12.0664 10.0981 12.0395 9.91 12.0966 9.73445C12.1536 9.55895 12.2859 9.42254 12.4596 9.36025C12.921 9.19474 13.2287 8.77125 13.2435 8.28134C13.2491 8.09686 13.3379 7.92886 13.4872 7.82041C13.6365 7.71192 13.8237 7.67938 14.0009 7.73104C14.4713 7.86835 14.9693 7.70655 15.2692 7.31896C15.3822 7.173 15.5528 7.08927 15.7374 7.08927C15.9219 7.08927 16.0925 7.17296 16.2055 7.31892C16.5054 7.70655 17.0032 7.86832 17.4738 7.73104C17.651 7.6793 17.8382 7.71188 17.9875 7.82037C18.1368 7.92882 18.2257 8.09686 18.2312 8.2813C18.2461 8.77121 18.5537 9.19474 19.0151 9.36022C19.1888 9.4225 19.3211 9.55891 19.3782 9.73441C19.4352 9.90992 19.4084 10.0981 19.3044 10.2506C19.0284 10.6557 19.0284 11.1792 19.3044 11.5843Z"/>
</mask>
<path d="M19.7939 10.5842C20.0018 10.279 20.0556 9.90262 19.9415 9.55144C19.8274 9.20027 19.5626 8.92737 19.2151 8.80273C18.9845 8.72003 18.8307 8.50834 18.8234 8.26349C18.8122 7.89442 18.6344 7.55825 18.3357 7.3412C18.037 7.12418 17.6622 7.05906 17.3079 7.16245C17.0726 7.23109 16.8239 7.15021 16.674 6.95649C16.4481 6.66444 16.1067 6.49695 15.7374 6.49695C15.3682 6.49695 15.0268 6.66444 14.8008 6.95649C14.6509 7.15025 14.402 7.23101 14.1669 7.16245C13.8126 7.05898 13.4379 7.12418 13.1391 7.3412C12.8404 7.55825 12.6627 7.89438 12.6515 8.26345C12.6441 8.5083 12.4903 8.71995 12.2597 8.80269C11.9122 8.92733 11.6474 9.20027 11.5333 9.5514C11.4192 9.90258 11.473 10.279 11.6809 10.5842C11.8188 10.7866 11.8188 11.0482 11.6809 11.2507C11.473 11.5558 11.4192 11.9323 11.5333 12.2834C11.6474 12.6346 11.9122 12.9075 12.2597 13.0322C12.4903 13.1149 12.6441 13.3266 12.6515 13.5714C12.6618 13.9109 12.8174 14.2299 13.0784 14.4465C13.2506 14.5895 13.4576 14.6789 13.6741 14.7088V17.4054C13.6741 17.6329 13.7975 17.8432 13.9961 17.9541C14.1945 18.065 14.4384 18.06 14.6322 17.9407L15.7185 17.272C15.7362 17.261 15.7467 17.266 15.7565 17.272L16.8427 17.9407C17.0365 18.0599 17.2803 18.0651 17.4788 17.9541C17.6775 17.8431 17.8009 17.6328 17.8009 17.4053V14.7088C18.0173 14.6789 18.2242 14.5894 18.3965 14.4465C18.6576 14.2299 18.8132 13.911 18.8235 13.5714C18.8308 13.3265 18.9846 13.1148 19.2152 13.0321C19.5628 12.9075 19.8276 12.6346 19.9416 12.2834C20.0557 11.9322 20.002 11.5558 19.7941 11.2506C19.656 11.0483 19.656 10.7867 19.7939 10.5842ZM17.1531 17.4362L16.0669 16.7675C15.865 16.6433 15.61 16.6431 15.4079 16.7675L14.3217 17.4362C14.2969 17.4513 14.2664 17.4339 14.2664 17.4053V14.6526C14.47 14.629 14.6719 14.7119 14.8008 14.8784C15.0268 15.1704 15.3682 15.3379 15.7375 15.3379C16.1067 15.3379 16.4481 15.1704 16.674 14.8784C16.8029 14.7118 17.0048 14.629 17.2084 14.6526V17.4053C17.2084 17.4341 17.1775 17.4513 17.1531 17.4362ZM19.3044 11.5843C19.4084 11.7368 19.4352 11.9249 19.3782 12.1004C19.3212 12.2759 19.1888 12.4123 19.0151 12.4747C18.5537 12.6401 18.2461 13.0636 18.2313 13.5535C18.226 13.7258 18.1503 13.881 18.0181 13.9907C17.8695 14.1141 17.6683 14.1606 17.4739 14.1039C17.0034 13.9666 16.5055 14.1284 16.2055 14.516C16.0926 14.6619 15.9219 14.7456 15.7374 14.7456C15.5529 14.7456 15.3822 14.6619 15.2692 14.516C15.0402 14.2199 14.6958 14.0556 14.3363 14.0556C14.225 14.0556 14.1122 14.0714 14.001 14.1038C13.8047 14.161 13.604 14.1131 13.4566 13.9907C13.3244 13.881 13.2487 13.7257 13.2435 13.5535C13.2287 13.0636 12.921 12.6401 12.4596 12.4746C12.2859 12.4123 12.1536 12.2759 12.0966 12.1004C12.0395 11.9249 12.0664 11.7368 12.1703 11.5842C12.4463 11.1792 12.4463 10.6558 12.1703 10.2507C12.0664 10.0981 12.0395 9.91 12.0966 9.73445C12.1536 9.55895 12.2859 9.42254 12.4596 9.36025C12.921 9.19474 13.2287 8.77125 13.2435 8.28134C13.2491 8.09686 13.3379 7.92886 13.4872 7.82041C13.6365 7.71192 13.8237 7.67938 14.0009 7.73104C14.4713 7.86835 14.9693 7.70655 15.2692 7.31896C15.3822 7.173 15.5528 7.08927 15.7374 7.08927C15.9219 7.08927 16.0925 7.17296 16.2055 7.31892C16.5054 7.70655 17.0032 7.86832 17.4738 7.73104C17.651 7.6793 17.8382 7.71188 17.9875 7.82037C18.1368 7.92882 18.2257 8.09686 18.2312 8.2813C18.2461 8.77121 18.5537 9.19474 19.0151 9.36022C19.1888 9.4225 19.3211 9.55891 19.3782 9.73441C19.4352 9.90992 19.4084 10.0981 19.3044 10.2506C19.0284 10.6557 19.0284 11.1792 19.3044 11.5843Z" fill="white"/>
<path d="M19.2151 8.80273L15.8389 18.2155L15.8393 18.2157L19.2151 8.80273ZM18.8234 8.26349L28.8189 7.96362L28.8188 7.96079L18.8234 8.26349ZM18.3357 7.3412L12.4577 15.4313L12.458 15.4315L18.3357 7.3412ZM17.3079 7.16245L20.1083 16.7623L20.1091 16.7621L17.3079 7.16245ZM16.674 6.95649L8.76462 13.0754L8.76566 13.0768L16.674 6.95649ZM14.8008 6.95649L6.89193 0.836875L6.89185 0.836973L14.8008 6.95649ZM14.1669 7.16245L11.3641 16.7616L11.3674 16.7626L14.1669 7.16245ZM13.1391 7.3412L7.26217 -0.74963L7.26096 -0.748753L13.1391 7.3412ZM12.6515 8.26345L2.65611 7.95968L2.65604 7.96197L12.6515 8.26345ZM12.2597 8.80269L15.6355 18.2156L15.6369 18.2152L12.2597 8.80269ZM11.5333 9.5514L21.0439 12.6414L21.0442 12.6407L11.5333 9.5514ZM11.6809 10.5842L19.9459 4.95484L19.945 4.95351L11.6809 10.5842ZM11.6809 11.2507L19.9454 16.8808L19.9454 16.8807L11.6809 11.2507ZM11.5333 12.2834L21.0443 9.19441L21.0439 9.19344L11.5333 12.2834ZM12.2597 13.0322L15.6369 3.6197L15.6365 3.61957L12.2597 13.0322ZM12.6515 13.5714L2.65599 13.8713L2.6561 13.8749L12.6515 13.5714ZM13.0784 14.4465L19.4655 6.75203L19.4642 6.75097L13.0784 14.4465ZM13.6741 14.7088H23.6741V5.99461L15.0418 4.8028L13.6741 14.7088ZM13.9961 17.9541L18.8744 9.22471L18.8726 9.22371L13.9961 17.9541ZM14.6322 17.9407L9.38995 9.42488L9.38865 9.42568L14.6322 17.9407ZM15.7185 17.272L20.9608 25.7877L20.9691 25.7826L20.9775 25.7774L15.7185 17.272ZM15.7565 17.272L20.9991 8.75635L20.9975 8.75537L15.7565 17.272ZM16.8427 17.9407L11.6001 26.4563L11.6013 26.457L16.8427 17.9407ZM17.4788 17.9541L12.6018 9.224L12.6003 9.22482L17.4788 17.9541ZM17.8009 14.7088L16.4345 4.80255L7.80087 5.99339V14.7088H17.8009ZM18.3965 14.4465L12.0112 6.75049L12.0104 6.75116L18.3965 14.4465ZM18.8235 13.5714L28.8189 13.8748L28.819 13.8713L18.8235 13.5714ZM19.2152 13.0321L15.8397 3.61907L15.839 3.61933L19.2152 13.0321ZM19.9416 12.2834L10.431 9.1934L10.4307 9.19437L19.9416 12.2834ZM19.7941 11.2506L28.0585 5.62049L28.0546 5.61467L19.7941 11.2506ZM16.0669 16.7675L21.3093 8.25185L21.3085 8.25137L16.0669 16.7675ZM15.4079 16.7675L20.6501 25.2834L20.6518 25.2823L15.4079 16.7675ZM14.3217 17.4362L19.5207 25.9785L19.5423 25.9653L19.5639 25.952L14.3217 17.4362ZM14.2664 14.6526L13.1162 4.71897L4.26641 5.74366V14.6526H14.2664ZM14.8008 14.8784L6.89195 20.9981L6.89284 20.9992L14.8008 14.8784ZM16.674 14.8784L8.76537 8.75851L8.76502 8.75896L16.674 14.8784ZM17.2084 14.6526H27.2084V5.74386L18.3588 4.71899L17.2084 14.6526ZM19.0151 12.4747L22.3912 21.8875L22.3916 21.8874L19.0151 12.4747ZM18.2313 13.5535L28.2266 13.8584L28.2267 13.8557L18.2313 13.5535ZM18.0181 13.9907L24.4045 21.6858L24.4048 21.6856L18.0181 13.9907ZM17.4739 14.1039L14.6728 23.7036L14.6731 23.7037L17.4739 14.1039ZM16.2055 14.516L8.29751 8.3952L8.29656 8.39642L16.2055 14.516ZM15.2692 14.516L7.35977 20.6348L7.36156 20.6371L15.2692 14.516ZM14.001 14.1038L16.7982 23.7047L16.8031 23.7032L14.001 14.1038ZM13.4566 13.9907L19.844 6.2965L19.8433 6.29587L13.4566 13.9907ZM13.2435 13.5535L23.239 13.2532L23.2389 13.2506L13.2435 13.5535ZM12.4596 12.4746L9.08244 21.8871L9.08305 21.8873L12.4596 12.4746ZM12.0966 12.1004L2.58604 15.1907L2.58667 15.1926L12.0966 12.1004ZM12.1703 11.5842L20.4338 17.2159L20.435 17.2141L12.1703 11.5842ZM12.1703 10.2507L20.435 4.62083L20.4338 4.61903L12.1703 10.2507ZM12.0966 9.73445L2.58604 6.64417L2.58584 6.6448L12.0966 9.73445ZM12.4596 9.36025L15.8349 18.7734L15.8362 18.7729L12.4596 9.36025ZM13.2435 8.28134L23.2389 8.5843L23.239 8.58306L13.2435 8.28134ZM13.4872 7.82041L19.3636 15.9117L19.367 15.9092L13.4872 7.82041ZM14.0009 7.73104L16.8034 -1.86826L16.7984 -1.86971L14.0009 7.73104ZM15.2692 7.31896L7.36052 1.19913L7.36046 1.19921L15.2692 7.31896ZM16.2055 7.31892L8.29679 13.4388L8.29681 13.4388L16.2055 7.31892ZM17.4738 7.73104L20.2742 17.3309L20.2769 17.3301L17.4738 7.73104ZM17.9875 7.82037L12.1097 15.9106L12.1111 15.9116L17.9875 7.82037ZM18.2312 8.2813L8.23572 8.58095L8.23582 8.58426L18.2312 8.2813ZM19.0151 9.36022L15.639 18.7731L15.6405 18.7736L19.0151 9.36022ZM19.3782 9.73441L28.8887 6.64413L28.8881 6.6422L19.3782 9.73441ZM19.3044 10.2506L11.0416 4.61796L11.0402 4.62003L19.3044 10.2506ZM28.0584 16.2143C30.0085 13.3518 30.5224 9.75558 29.4522 6.46145L10.4309 12.6414C9.58884 10.0497 9.99518 7.20623 11.5295 4.95404L28.0584 16.2143ZM29.4522 6.46145C28.3817 3.16663 25.8514 0.559107 22.5909 -0.61023L15.8393 18.2157C13.2738 17.2956 11.2732 15.2339 10.4309 12.6414L29.4522 6.46145ZM22.5913 -0.610086C26.2292 0.694751 28.7029 4.09726 28.8189 7.96362L8.82785 8.56335C8.95853 12.9194 11.7399 16.7453 15.8389 18.2155L22.5913 -0.610086ZM28.8188 7.96079C28.7139 4.49814 27.0154 1.28659 24.2133 -0.749122L12.458 15.4315C10.2535 13.8299 8.91044 11.2907 8.82794 8.56618L28.8188 7.96079ZM24.2136 -0.748892C21.4108 -2.7853 17.8313 -3.4073 14.5068 -2.43721L20.1091 16.7621C17.4932 17.5254 14.6631 17.0337 12.4577 15.4313L24.2136 -0.748892ZM14.5075 -2.43744C18.2186 -3.51999 22.2175 -2.21959 24.5824 0.836192L8.76566 13.0768C11.4304 16.52 15.9266 17.9822 20.1083 16.7623L14.5075 -2.43744ZM24.5834 0.837544C22.4634 -1.90282 19.2012 -3.50305 15.7374 -3.50305V16.4969C13.0121 16.4969 10.4328 15.2317 8.76462 13.0754L24.5834 0.837544ZM15.7374 -3.50305C12.2737 -3.50305 9.01186 -1.90288 6.89193 0.836875L22.7097 13.0761C21.0417 15.2318 18.4627 16.4969 15.7374 16.4969V-3.50305ZM6.89185 0.836973C9.25893 -2.22228 13.259 -3.51885 16.9665 -2.43768L11.3674 16.7626C15.5451 17.9809 20.0428 16.5228 22.7097 13.076L6.89185 0.836973ZM16.9698 -2.43672C13.6423 -3.40829 10.063 -2.78407 7.26217 -0.74963L19.0161 15.432C16.8128 17.0324 13.9828 17.5262 11.3641 16.7616L16.9698 -2.43672ZM7.26096 -0.748753C4.45839 1.28759 2.76128 4.49904 2.65611 7.95968L22.6469 8.56721C22.5641 11.2897 21.2224 13.8289 19.0173 15.4311L7.26096 -0.748753ZM2.65604 7.96197C2.77262 4.09668 5.2457 0.695093 8.88257 -0.609797L15.6369 18.2152C19.7349 16.7448 22.5156 12.9199 22.6469 8.56492L2.65604 7.96197ZM8.88389 -0.61027C5.62309 0.559172 3.09278 3.16705 2.02248 6.46207L21.0442 12.6407C20.202 15.2335 18.2013 17.2955 15.6355 18.2156L8.88389 -0.61027ZM2.02269 6.46141C0.952525 9.75526 1.46613 13.3518 3.41677 16.2148L19.945 4.95351C21.4799 7.20622 21.8859 10.0499 21.0439 12.6414L2.02269 6.46141ZM3.41587 16.2135C1.24072 13.0199 1.2401 8.81524 3.41638 5.62062L19.9454 16.8807C22.3975 13.2812 22.3969 8.55339 19.9459 4.95484L3.41587 16.2135ZM3.41644 5.62053C1.46635 8.48305 0.952435 12.0793 2.02269 15.3734L21.0439 9.19344C21.886 11.7852 21.4797 14.6286 19.9454 16.8808L3.41644 5.62053ZM2.02238 15.3725C3.09281 18.6683 5.6234 21.2754 8.88294 22.4448L15.6365 3.61957C18.201 4.53957 20.2019 6.60096 21.0443 9.19441L2.02238 15.3725ZM8.88257 22.4447C5.2469 21.1402 2.77202 17.7391 2.65599 13.8713L22.647 13.2716C22.5163 8.91408 19.7337 5.08964 15.6369 3.6197L8.88257 22.4447ZM2.6561 13.8749C2.7533 17.0763 4.21917 20.0896 6.69262 22.1421L19.4642 6.75097C21.4156 8.3702 22.5703 10.7455 22.6469 13.2679L2.6561 13.8749ZM6.69133 22.141C8.31841 23.4916 10.2699 24.3337 12.3064 24.6149L15.0418 4.8028C16.6452 5.02417 18.1829 5.68735 19.4655 6.75203L6.69133 22.141ZM3.67409 14.7088V17.4054H23.6741V14.7088H3.67409ZM3.67409 17.4054C3.67409 21.256 5.75735 24.8065 9.11966 26.6845L18.8726 9.22371C21.8377 10.8799 23.6741 14.0097 23.6741 17.4054H3.67409ZM9.11787 26.6835C12.4761 28.5602 16.5925 28.4775 19.8758 26.4556L9.38865 9.42568C12.2842 7.64259 15.9129 7.56973 18.8744 9.22471L9.11787 26.6835ZM19.8745 26.4564L20.9608 25.7877L10.4762 8.75618L9.38995 9.42488L19.8745 26.4564ZM20.9775 25.7774C19.5926 26.6337 17.4172 27.4877 14.7286 27.2143C12.3349 26.9708 10.696 25.8996 10.5155 25.7885L20.9975 8.75537C20.8072 8.63828 19.1582 7.56162 16.7523 7.31693C14.0516 7.04224 11.8621 7.89928 10.4595 8.76647L20.9775 25.7774ZM10.5139 25.7876L11.6001 26.4563L22.0852 9.42505L20.9991 8.75635L10.5139 25.7876ZM11.6013 26.457C14.8801 28.4749 18.9953 28.5623 22.3574 26.6833L12.6003 9.22482C15.5652 7.56783 19.1929 7.64496 22.084 9.42431L11.6013 26.457ZM22.3559 26.6842C25.7179 24.806 27.8009 21.2557 27.8009 17.4053H7.80087C7.80087 14.0099 9.63705 10.8802 12.6018 9.224L22.3559 26.6842ZM27.8009 17.4053V14.7088H7.80087V17.4053H27.8009ZM19.1672 24.615C21.2049 24.3339 23.1562 23.4915 24.7825 22.1419L12.0104 6.75116C13.2923 5.68743 14.8298 5.02389 16.4345 4.80255L19.1672 24.615ZM24.7817 22.1426C27.255 20.0905 28.7217 17.0772 28.8189 13.8748L8.82808 13.268C8.90467 10.7447 10.0601 8.3693 12.0112 6.75049L24.7817 22.1426ZM28.819 13.8713C28.703 17.7376 26.2293 21.1401 22.5914 22.445L15.839 3.61933C11.74 5.08957 8.95865 8.91544 8.82797 13.2715L28.819 13.8713ZM22.5907 22.4452C25.8518 21.2758 28.3823 18.6677 29.4526 15.3724L10.4307 9.19437C11.2729 6.60143 13.2737 4.53922 15.8397 3.61907L22.5907 22.4452ZM29.4523 15.3734C30.5225 12.0793 30.0086 8.48301 28.0585 5.62049L11.5296 16.8808C9.99529 14.6286 9.58896 11.7852 10.431 9.1934L29.4523 15.3734ZM28.0546 5.61467C30.2363 8.81246 30.234 13.021 28.0582 16.2146L11.5297 4.95378C9.07794 8.55239 9.07564 13.2841 11.5336 16.8866L28.0546 5.61467ZM22.3956 8.92055L21.3093 8.25185L10.8245 25.2832L11.9107 25.9519L22.3956 8.92055ZM21.3085 8.25137C17.8961 6.15103 13.5855 6.14561 10.1639 8.25279L20.6518 25.2823C17.6346 27.1405 13.8339 27.1355 10.8253 25.2837L21.3085 8.25137ZM10.1657 8.25172L9.07947 8.92038L19.5639 25.952L20.6501 25.2834L10.1657 8.25172ZM9.12263 8.89396C15.7637 4.85202 24.2664 9.63488 24.2664 17.4053H4.26641C4.26641 25.233 12.8302 30.0505 19.5207 25.9785L9.12263 8.89396ZM24.2664 17.4053V14.6526H4.26641V17.4053H24.2664ZM15.4166 24.5862C12.1639 24.9629 8.92055 23.6198 6.89195 20.9981L22.7096 8.75877C20.4233 5.80398 16.7762 4.29519 13.1162 4.71897L15.4166 24.5862ZM6.89284 20.9992C9.0124 23.7376 12.2735 25.3379 15.7375 25.3379V5.33793C18.4629 5.33793 21.0412 6.60322 22.7088 8.75762L6.89284 20.9992ZM15.7375 25.3379C19.2013 25.3379 22.4631 23.7377 24.583 20.9979L8.76502 8.75896C10.433 6.60321 13.0121 5.33793 15.7375 5.33793V25.3379ZM24.5827 20.9983C22.5535 23.6206 19.3098 24.9628 16.058 24.5862L18.3588 4.71899C14.6998 4.29524 11.0523 5.8031 8.76537 8.75851L24.5827 20.9983ZM7.20843 14.6526V17.4053H27.2084V14.6526H7.20843ZM7.20843 17.4053C7.20843 9.60632 15.7674 4.8276 22.4072 8.92772L11.8991 25.9448C18.5877 30.075 27.2084 25.2619 27.2084 17.4053H7.20843ZM11.041 17.2159C9.40107 14.8097 8.96864 11.777 9.86767 9.01014L28.8887 15.1907C29.9018 12.0729 29.4157 8.66396 27.5679 5.95264L11.041 17.2159ZM9.86767 9.01014C10.767 6.24243 12.8997 4.04443 15.6386 3.06195L22.3916 21.8874C25.4779 20.7802 27.8753 18.3094 28.8887 15.1907L9.86767 9.01014ZM15.639 3.06181C11.308 4.61521 8.37484 8.65315 8.23584 13.2514L28.2267 13.8557C28.1173 17.4741 25.7995 20.6651 22.3912 21.8875L15.639 3.06181ZM8.23592 13.2487C8.31783 10.563 9.54978 8.02368 11.6314 6.29591L24.4048 21.6856C26.7508 19.7384 28.1342 16.8886 28.2266 13.8584L8.23592 13.2487ZM11.6318 6.29563C13.9624 4.36136 17.1858 3.60294 20.2746 4.5041L14.6731 23.7037C18.1507 24.7182 21.7766 23.8668 24.4045 21.6858L11.6318 6.29563ZM20.2749 4.50418C15.8586 3.21559 11.1128 4.75779 8.29751 8.3952L24.1135 20.6367C21.8981 23.4989 18.1481 24.7176 14.6728 23.7036L20.2749 4.50418ZM8.29656 8.39642C10.0778 6.09435 12.8277 4.74561 15.7374 4.74561V24.7456C19.0162 24.7456 22.1074 23.2294 24.1144 20.6355L8.29656 8.39642ZM15.7374 4.74561C18.6468 4.74561 21.396 6.09406 23.1769 8.39478L7.36156 20.6371C9.36848 23.2298 12.4589 24.7456 15.7374 24.7456V4.74561ZM23.1787 8.39709C21.0434 5.63692 17.7704 4.05562 14.3363 4.05562V24.0556C11.6212 24.0556 9.03703 22.8029 7.35977 20.6348L23.1787 8.39709ZM14.3363 4.05562C13.2792 4.05562 12.2228 4.20556 11.1989 4.50445L16.8031 23.7032C16.0016 23.9372 15.1708 24.0556 14.3363 24.0556V4.05562ZM11.2038 4.50302C14.3145 3.59672 17.5331 4.37803 19.844 6.2965L7.06916 21.6849C9.67497 23.8481 13.2949 24.7253 16.7982 23.7047L11.2038 4.50302ZM19.8433 6.29587C21.9246 8.02332 23.1582 10.5637 23.239 13.2532L3.24805 13.8539C3.3392 16.8877 4.72428 19.7386 7.06992 21.6855L19.8433 6.29587ZM23.2389 13.2506C23.0996 8.65272 20.1666 4.61537 15.8362 3.06193L9.08305 21.8873C5.67544 20.6649 3.35779 17.4745 3.24813 13.8565L23.2389 13.2506ZM15.8368 3.06215C18.5757 4.04486 20.7072 6.24257 21.6065 9.00821L2.58667 15.1926C3.60007 18.3093 5.99618 20.7797 9.08244 21.8871L15.8368 3.06215ZM21.6071 9.01014C22.5061 11.7767 22.0738 14.8094 20.4338 17.2159L3.90689 5.9526C2.05897 8.6641 1.57303 12.0731 2.58604 15.1907L21.6071 9.01014ZM20.435 17.2141C23.0247 13.4124 23.0247 8.42255 20.435 4.62083L3.90567 15.8805C1.86784 12.889 1.86784 8.94595 3.90567 5.9544L20.435 17.2141ZM20.4338 4.61903C22.074 7.0258 22.5058 10.0583 21.6073 12.8241L2.58584 6.6448C1.57328 9.76172 2.05876 13.1705 3.90689 15.8823L20.4338 4.61903ZM21.6071 12.8247C20.7079 15.5919 18.5753 17.7908 15.8349 18.7734L9.08434 -0.0528955C5.99655 1.0543 3.59926 3.52594 2.58604 6.64417L21.6071 12.8247ZM15.8362 18.7729C20.1666 17.2195 23.0996 13.1822 23.2389 8.5843L3.24813 7.97837C3.35779 4.36035 5.67544 1.16997 9.08305 -0.052434L15.8362 18.7729ZM23.239 8.58306C23.1512 11.4904 21.7207 14.1997 19.3636 15.9117L7.61084 -0.270836C4.95504 1.65798 3.34699 4.70332 3.24809 7.97961L23.239 8.58306ZM19.367 15.9092C17.0099 17.6226 13.9924 18.1444 11.2035 17.3318L16.7984 -1.86971C13.6549 -2.78566 10.263 -2.19876 7.6074 -0.268339L19.367 15.9092ZM11.1985 17.3303C15.6158 18.6199 20.3628 17.0769 23.178 13.4387L7.36046 1.19921C9.57586 -1.66383 13.3268 -2.88321 16.8034 -1.86826L11.1985 17.3303ZM23.1779 13.4388C21.3974 15.7399 18.6479 17.0893 15.7374 17.0893V-2.91073C12.4577 -2.91073 9.367 -1.39386 7.36052 1.19913L23.1779 13.4388ZM15.7374 17.0893C12.8279 17.0893 10.078 15.7407 8.29679 13.4388L24.1142 1.19909C22.1071 -1.39477 19.016 -2.91073 15.7374 -2.91073V17.0893ZM8.29681 13.4388C11.1123 17.0772 15.8582 18.6191 20.2742 17.3309L14.6735 -1.86886C18.1482 -2.88247 21.8986 -1.6641 24.1142 1.19906L8.29681 13.4388ZM20.2769 17.3301C17.4811 18.1466 14.4631 17.6204 12.1097 15.9106L23.8653 -0.269858C21.2133 -2.19659 17.8209 -2.78796 14.6707 -1.86805L20.2769 17.3301ZM12.1111 15.9116C9.7561 14.2012 8.323 11.4924 8.23572 8.58095L28.2267 7.98165C28.1284 4.70131 26.5176 1.6564 23.8639 -0.270875L12.1111 15.9116ZM8.23582 8.58426C8.37516 13.1814 11.3075 17.2195 15.639 18.7731L22.3912 -0.0526376C25.7999 1.16997 28.117 4.36101 28.2266 7.97833L8.23582 8.58426ZM15.6405 18.7736C12.8986 17.7907 10.7672 15.5913 9.86829 12.8266L28.8881 6.6422C27.875 3.52653 25.4791 1.05433 22.3897 -0.0531783L15.6405 18.7736ZM9.86767 12.8247C8.96889 10.0587 9.4005 7.02543 11.0417 4.61796L27.5672 15.8832C29.4162 13.1708 29.9016 9.76118 28.8887 6.64413L9.86767 12.8247ZM11.0402 4.62003C8.44991 8.42194 8.4496 13.4128 11.0405 17.2152L27.5683 5.95334C29.6072 8.94555 29.6069 12.8895 27.5686 15.8812L11.0402 4.62003Z" fill="white" mask="url(#path-9-inside-2)"/>
<path d="M15.7362 8.43512C14.3675 8.43512 13.2539 9.54867 13.2539 10.9174C13.2539 10.9174 13.2539 10.9175 13.2539 10.9175C13.2539 12.2862 14.3675 13.3997 15.7362 13.3997C17.1049 13.3997 18.2185 12.2862 18.2185 10.9175C18.2185 10.9175 18.2185 10.9174 18.2185 10.9174C18.2185 9.54867 17.1049 8.43512 15.7362 8.43512ZM15.7362 12.8074C14.6941 12.8074 13.8462 11.9596 13.8462 10.9175C13.8462 10.9175 13.8462 10.9174 13.8462 10.9174C13.8462 9.87534 14.6941 9.02748 15.7362 9.02748C16.7784 9.02748 17.6262 9.8753 17.6262 10.9174C17.6262 10.9174 17.6262 10.9175 17.6262 10.9175C17.6262 11.9596 16.7783 12.8074 15.7362 12.8074Z" fill="white" stroke="white" stroke-width="10"/>
</svg>
