<svg width="23" height="23" viewBox="0 0 23 23" fill="none" xmlns="http://www.w3.org/2000/svg">
<mask id="path-1-inside-1" fill="white">
<path d="M9.54271 2.23074V2.63951C9.54271 3.5993 10.2404 4.39867 11.1552 4.55855V5.50176C10.3311 5.63591 9.67789 6.28396 9.53567 7.10525H9.06503C8.63134 7.10525 8.63134 7.77779 9.06503 7.77779H13.8927C14.3264 7.77779 14.3264 7.10525 13.8927 7.10525H13.4083C13.2684 6.29696 12.6333 5.65662 11.8277 5.50871V4.55851C12.7425 4.39867 13.4402 3.59926 13.4402 2.63946V2.2272C13.8695 2.16945 14.2107 1.99702 14.4568 1.71186C14.9546 1.13479 14.8408 0.321291 14.8357 0.286992C14.8112 0.122132 14.6697 0 14.503 0H13.1039H13.0878H9.87902C9.87749 0 9.87606 0.000224177 9.87454 0.000224177C9.87301 0.000224177 9.87158 0 9.87005 0H8.45473C8.28803 0 8.14653 0.122132 8.1221 0.286992C8.11703 0.321336 8.00319 1.13479 8.50105 1.71186C8.75186 2.00267 9.10144 2.17649 9.54271 2.23074ZM12.7208 7.1053H10.2232C10.3716 6.55481 10.8752 6.14842 11.472 6.14842C12.0687 6.14842 12.5724 6.55476 12.7208 7.1053ZM13.9475 1.27256C13.8288 1.41007 13.6588 1.50127 13.4402 1.54557V0.672532H14.1725C14.1567 0.855864 14.1031 1.09215 13.9475 1.27256ZM10.2152 0.672532H12.7676V1.87394C12.7662 1.88677 12.7652 1.89977 12.7652 1.91304C12.7652 1.92631 12.7661 1.93927 12.7676 1.95214V2.63951C12.7676 3.34316 12.1951 3.91566 11.4914 3.91566C10.7877 3.91566 10.2152 3.34316 10.2152 2.63951V0.672532ZM9.54271 0.672532V1.55023C9.31337 1.50826 9.1356 1.41649 9.01262 1.2753C8.8552 1.0947 8.80122 0.85685 8.7853 0.672532H9.54271Z"/>
</mask>
<path d="M9.54271 2.23074V2.63951C9.54271 3.5993 10.2404 4.39867 11.1552 4.55855V5.50176C10.3311 5.63591 9.67789 6.28396 9.53567 7.10525H9.06503C8.63134 7.10525 8.63134 7.77779 9.06503 7.77779H13.8927C14.3264 7.77779 14.3264 7.10525 13.8927 7.10525H13.4083C13.2684 6.29696 12.6333 5.65662 11.8277 5.50871V4.55851C12.7425 4.39867 13.4402 3.59926 13.4402 2.63946V2.2272C13.8695 2.16945 14.2107 1.99702 14.4568 1.71186C14.9546 1.13479 14.8408 0.321291 14.8357 0.286992C14.8112 0.122132 14.6697 0 14.503 0H13.1039H13.0878H9.87902C9.87749 0 9.87606 0.000224177 9.87454 0.000224177C9.87301 0.000224177 9.87158 0 9.87005 0H8.45473C8.28803 0 8.14653 0.122132 8.1221 0.286992C8.11703 0.321336 8.00319 1.13479 8.50105 1.71186C8.75186 2.00267 9.10144 2.17649 9.54271 2.23074ZM12.7208 7.1053H10.2232C10.3716 6.55481 10.8752 6.14842 11.472 6.14842C12.0687 6.14842 12.5724 6.55476 12.7208 7.1053ZM13.9475 1.27256C13.8288 1.41007 13.6588 1.50127 13.4402 1.54557V0.672532H14.1725C14.1567 0.855864 14.1031 1.09215 13.9475 1.27256ZM10.2152 0.672532H12.7676V1.87394C12.7662 1.88677 12.7652 1.89977 12.7652 1.91304C12.7652 1.92631 12.7661 1.93927 12.7676 1.95214V2.63951C12.7676 3.34316 12.1951 3.91566 11.4914 3.91566C10.7877 3.91566 10.2152 3.34316 10.2152 2.63951V0.672532ZM9.54271 0.672532V1.55023C9.31337 1.50826 9.1356 1.41649 9.01262 1.2753C8.8552 1.0947 8.80122 0.85685 8.7853 0.672532H9.54271Z" fill="white"/>
<path d="M9.54271 2.23074H29.5427V-15.461L11.9832 -17.6198L9.54271 2.23074ZM11.1552 4.55855H31.1552V-12.2489L14.5987 -15.1428L11.1552 4.55855ZM11.1552 5.50176L14.3688 25.2419L31.1552 22.5092V5.50176H11.1552ZM9.53567 7.10525V27.1053H26.37L29.2424 10.5177L9.53567 7.10525ZM13.4083 7.10525L-6.29836 10.518L-3.42585 27.1053H13.4083V7.10525ZM11.8277 5.50871H-8.17225V22.1709L8.21603 25.1799L11.8277 5.50871ZM11.8277 4.55851L8.38515 -15.143L-8.17225 -12.2498V4.55851H11.8277ZM13.4402 2.2272L10.7739 -17.5943L-6.55979 -15.2626V2.2272H13.4402ZM14.4568 1.71186L29.5988 14.7778L29.6001 14.7763L14.4568 1.71186ZM14.8357 0.286992L34.621 -2.63555L34.6199 -2.64308L34.6188 -2.65061L14.8357 0.286992ZM8.1221 0.286992L-11.6618 -2.64535L-11.6638 -2.63181L8.1221 0.286992ZM8.50105 1.71186L23.6462 -11.3504L23.6444 -11.3525L8.50105 1.71186ZM12.7208 7.1053V27.1053H38.826L32.0315 1.8998L12.7208 7.1053ZM10.2232 7.1053L-9.08741 1.8994L-15.8826 27.1053H10.2232V7.1053ZM11.472 6.14842V-13.8516V6.14842ZM13.9475 1.27256L29.0907 14.3371L29.0919 14.3357L13.9475 1.27256ZM13.4402 1.54557H-6.55984V26.0035L17.4112 21.1474L13.4402 1.54557ZM13.4402 0.672532V-19.3275H-6.55984V0.672532H13.4402ZM14.1725 0.672532L34.0984 2.39272L35.9735 -19.3275H14.1725V0.672532ZM12.7676 0.672532H32.7676V-19.3275H12.7676V0.672532ZM12.7676 1.87394L32.6358 4.16642L32.7676 3.02397V1.87394H12.7676ZM12.7676 1.95214H32.7676V0.771594L32.6287 -0.400749L12.7676 1.95214ZM9.54271 1.55023L5.94266 21.2236L29.5427 25.5422V1.55023H9.54271ZM9.01262 1.2753L24.0935 -11.8612L24.0892 -11.8661L9.01262 1.2753ZM8.7853 0.672532V-19.3275H-13.0162L-11.1405 2.3932L8.7853 0.672532ZM-10.4573 2.23074V2.63951H29.5427V2.23074H-10.4573ZM-10.4573 2.63951C-10.4573 13.508 -2.58525 22.4601 7.71164 24.2599L14.5987 -15.1428C23.0661 -13.6628 29.5427 -6.30936 29.5427 2.63951H-10.4573ZM-8.84483 4.55855V5.50176H31.1552V4.55855H-8.84483ZM7.94158 -14.2384C-1.31015 -12.7322 -8.57591 -5.51906 -10.1711 3.69278L29.2424 10.5177C27.9317 18.087 21.9724 24.0041 14.3688 25.2419L7.94158 -14.2384ZM9.53567 -12.8947H9.06503V27.1053H9.53567V-12.8947ZM9.06503 -12.8947C3.29293 -12.8947 -2.38463 -10.4337 -6.34396 -5.8289C-9.9453 -1.64043 -11.2602 3.27202 -11.2602 7.44152C-11.2602 11.611 -9.9453 16.5235 -6.34396 20.7119C-2.38463 25.3168 3.29293 27.7778 9.06503 27.7778V-12.2222C14.6203 -12.2222 20.1352 -9.84525 23.9861 -5.36653C27.479 -1.30416 28.7398 3.44016 28.7398 7.44152C28.7398 11.4429 27.479 16.1872 23.9861 20.2496C20.1352 24.7283 14.6203 27.1053 9.06503 27.1053V-12.8947ZM9.06503 27.7778H13.8927V-12.2222H9.06503V27.7778ZM13.8927 27.7778C19.6648 27.7778 25.3424 25.3168 29.3017 20.7119C32.9031 16.5235 34.218 11.611 34.218 7.44152C34.218 3.27202 32.9031 -1.64043 29.3017 -5.8289C25.3424 -10.4337 19.6648 -12.8947 13.8927 -12.8947V27.1053C8.33748 27.1053 2.82255 24.7283 -1.02835 20.2496C-4.52127 16.1872 -5.782 11.4429 -5.782 7.44152C-5.782 3.44016 -4.52127 -1.30416 -1.02835 -5.36653C2.82255 -9.84525 8.33748 -12.2222 13.8927 -12.2222V27.7778ZM13.8927 -12.8947H13.4083V27.1053H13.8927V-12.8947ZM33.115 3.69255C31.5438 -5.38025 24.4774 -12.5031 15.4395 -14.1625L8.21603 25.1799C0.789306 23.8163 -5.00712 17.9742 -6.29836 10.518L33.115 3.69255ZM31.8277 5.50871V4.55851H-8.17225V5.50871H31.8277ZM15.2703 24.26C25.5688 22.4605 33.4402 13.5072 33.4402 2.63946H-6.55979C-6.55979 -6.30866 -0.0837984 -13.6631 8.38515 -15.143L15.2703 24.26ZM33.4402 2.63946V2.2272H-6.55979V2.63946H33.4402ZM16.1065 22.0487C20.5775 21.4473 25.6672 19.3341 29.5988 14.7778L-0.685265 -11.3541C2.75424 -15.3401 7.16155 -17.1083 10.7739 -17.5943L16.1065 22.0487ZM29.6001 14.7763C33.3801 10.3948 34.3939 5.69937 34.696 3.14824C35.0101 0.496145 34.7713 -1.6184 34.621 -2.63555L-4.94961 3.20953C-5.09478 2.22669 -5.27418 0.536034 -5.02635 -1.55647C-4.79047 -3.548 -3.96872 -7.54813 -0.686601 -11.3525L29.6001 14.7763ZM34.6188 -2.65061C33.1396 -12.6125 24.5876 -20 14.503 -20V20C4.75191 20 -3.51709 12.8568 -4.94737 3.22459L34.6188 -2.65061ZM14.503 -20H13.1039V20H14.503V-20ZM13.1039 -20H13.0878V20H13.1039V-20ZM13.0878 -20H9.87902V20H13.0878V-20ZM9.87902 -20C9.63422 -20 9.41501 -19.9955 9.22699 -19.9894C9.13283 -19.9863 9.0457 -19.9828 8.96655 -19.9792C8.88745 -19.9756 8.81544 -19.9718 8.75174 -19.9682C8.68812 -19.9646 8.63153 -19.9612 8.58361 -19.958C8.53582 -19.9549 8.49481 -19.9521 8.46293 -19.9499C8.43133 -19.9476 8.40576 -19.9457 8.39021 -19.9446C8.38227 -19.944 8.37584 -19.9435 8.37193 -19.9432C8.36994 -19.943 8.36832 -19.9429 8.36733 -19.9428C8.36682 -19.9428 8.36641 -19.9428 8.36616 -19.9428C8.36603 -19.9427 8.36592 -19.9427 8.36586 -19.9427C8.36583 -19.9427 8.36579 -19.9427 8.36578 -19.9427C8.36576 -19.9427 8.36575 -19.9427 8.36575 -19.9427C8.3652 -19.9427 8.36817 -19.9429 8.37165 -19.9432C8.37547 -19.9435 8.38181 -19.9439 8.38965 -19.9445C8.40502 -19.9457 8.4304 -19.9475 8.46182 -19.9498C8.49351 -19.952 8.53434 -19.9548 8.58195 -19.9579C8.62968 -19.961 8.68608 -19.9645 8.74952 -19.9681C8.81303 -19.9717 8.88485 -19.9754 8.96376 -19.979C9.04273 -19.9826 9.12967 -19.9861 9.22364 -19.9892C9.41129 -19.9953 9.63012 -19.9998 9.87454 -19.9998V20.0002C10.1193 20.0002 10.3385 19.9957 10.5266 19.9896C10.6207 19.9865 10.7079 19.983 10.787 19.9794C10.8661 19.9758 10.9381 19.9721 11.0018 19.9685C11.0654 19.9649 11.122 19.9614 11.1699 19.9583C11.2177 19.9552 11.2587 19.9523 11.2906 19.9501C11.3222 19.9478 11.3478 19.9459 11.3633 19.9448C11.3713 19.9442 11.3777 19.9437 11.3816 19.9434C11.3836 19.9433 11.3852 19.9431 11.3862 19.9431C11.3867 19.943 11.3871 19.943 11.3874 19.943C11.3875 19.943 11.3876 19.943 11.3877 19.943C11.3877 19.943 11.3878 19.943 11.3878 19.943C11.3878 19.943 11.3878 19.943 11.3878 19.9429C11.3884 19.9429 11.3854 19.9431 11.3819 19.9434C11.3781 19.9437 11.3717 19.9442 11.3639 19.9447C11.3485 19.9459 11.3232 19.9478 11.2917 19.95C11.26 19.9522 11.2192 19.9551 11.1716 19.9581C11.1239 19.9612 11.0675 19.9647 11.004 19.9683C10.9405 19.9719 10.8687 19.9756 10.7898 19.9792C10.7108 19.9828 10.6239 19.9863 10.5299 19.9894C10.3423 19.9955 10.1234 20 9.87902 20V-20ZM9.87454 -19.9998C10.1189 -19.9998 10.3378 -19.9953 10.5254 -19.9892C10.6193 -19.9861 10.7062 -19.9826 10.7852 -19.979C10.8641 -19.9754 10.9359 -19.9717 10.9994 -19.9681C11.0628 -19.9645 11.1192 -19.961 11.1669 -19.9579C11.2145 -19.9549 11.2553 -19.952 11.2869 -19.9498C11.3184 -19.9476 11.3437 -19.9457 11.3591 -19.9445C11.3669 -19.944 11.3733 -19.9435 11.3771 -19.9432C11.3806 -19.9429 11.3835 -19.9427 11.383 -19.9428C11.383 -19.9428 11.383 -19.9428 11.3829 -19.9428C11.3829 -19.9428 11.3829 -19.9428 11.3829 -19.9428C11.3828 -19.9428 11.3827 -19.9428 11.3826 -19.9428C11.3823 -19.9428 11.3819 -19.9428 11.3814 -19.9429C11.3804 -19.9429 11.3788 -19.9431 11.3768 -19.9432C11.3729 -19.9435 11.3665 -19.944 11.3585 -19.9446C11.343 -19.9457 11.3174 -19.9476 11.2858 -19.9499C11.254 -19.9521 11.213 -19.955 11.1652 -19.9581C11.1173 -19.9612 11.0607 -19.9647 10.9971 -19.9682C10.9335 -19.9718 10.8615 -19.9756 10.7824 -19.9792C10.7033 -19.9828 10.6162 -19.9863 10.522 -19.9894C10.334 -19.9955 10.1148 -20 9.87005 -20V20C9.62564 20 9.40683 19.9955 9.21922 19.9894C9.12527 19.9863 9.03835 19.9828 8.95941 19.9792C8.88052 19.9756 8.80871 19.9719 8.74523 19.9683C8.68181 19.9647 8.62543 19.9613 8.57772 19.9582C8.53013 19.9551 8.48932 19.9523 8.45764 19.95C8.42624 19.9478 8.40086 19.9459 8.3855 19.9448C8.37766 19.9442 8.37133 19.9437 8.36752 19.9434C8.36404 19.9432 8.36106 19.9429 8.36161 19.943C8.36161 19.943 8.36163 19.943 8.36164 19.943C8.36166 19.943 8.3617 19.943 8.36172 19.943C8.36179 19.943 8.36189 19.943 8.36202 19.943C8.36228 19.943 8.36269 19.9431 8.36319 19.9431C8.36418 19.9432 8.3658 19.9433 8.36779 19.9434C8.3717 19.9437 8.37812 19.9442 8.38606 19.9448C8.4016 19.946 8.42716 19.9479 8.45875 19.9501C8.49062 19.9524 8.53161 19.9552 8.57939 19.9583C8.62729 19.9614 8.68385 19.9649 8.74745 19.9685C8.81113 19.9721 8.88311 19.9758 8.96219 19.9794C9.04132 19.983 9.12843 19.9865 9.22257 19.9896C9.41055 19.9957 9.62974 20.0002 9.87454 20.0002V-19.9998ZM9.87005 -20H8.45473V20H9.87005V-20ZM8.45473 -20C-1.62874 -20 -10.1844 -12.6126 -11.6618 -2.64535L27.906 3.21933C26.4775 12.8569 18.2048 20 8.45473 20V-20ZM-11.6638 -2.63181C-11.8132 -1.61889 -12.0524 0.49547 -11.7382 3.1483C-11.436 5.69961 -10.4222 10.3949 -6.64232 14.7763L23.6444 -11.3525C26.9264 -7.54824 27.7482 -3.54822 27.9841 -1.5565C28.2321 0.536754 28.0523 2.22722 27.908 3.20579L-11.6638 -2.63181ZM-6.64413 14.7742C-2.63193 19.4261 2.57575 21.5248 7.10223 22.0813L11.9832 -17.6198C15.6271 -17.1718 20.1356 -15.4208 23.6462 -11.3504L-6.64413 14.7742ZM12.7208 -12.8947H10.2232V27.1053H12.7208V-12.8947ZM29.5338 12.3112C27.3938 20.249 20.163 26.1484 11.472 26.1484V-13.8516C1.58745 -13.8516 -6.65066 -7.13939 -9.08741 1.8994L29.5338 12.3112ZM11.472 26.1484C2.78085 26.1484 -4.4501 20.2488 -6.58991 12.3108L32.0315 1.8998C29.5948 -7.13927 21.3566 -13.8516 11.472 -13.8516V26.1484ZM-1.19575 -11.792C2.21091 -15.7407 6.39061 -17.4326 9.46916 -18.0562L17.4112 21.1474C20.927 20.4351 25.4468 18.5608 29.0907 14.3371L-1.19575 -11.792ZM33.4402 1.54557V0.672532H-6.55984V1.54557H33.4402ZM13.4402 20.6725H14.1725V-19.3275H13.4402V20.6725ZM-5.75338 -1.04765C-5.66393 -2.0838 -5.44621 -3.59502 -4.86236 -5.34758C-4.27542 -7.10943 -3.19804 -9.4707 -1.19694 -11.7906L29.0919 14.3357C33.2396 9.52719 33.9295 4.34962 34.0984 2.39272L-5.75338 -1.04765ZM10.2152 20.6725H12.7676V-19.3275H10.2152V20.6725ZM-7.23237 0.672532V1.87394H32.7676V0.672532H-7.23237ZM-7.10055 -0.418539C-7.16094 0.104837 -7.23483 0.917327 -7.23483 1.91304H32.7652C32.7652 2.88221 32.6932 3.66869 32.6358 4.16642L-7.10055 -0.418539ZM-7.23483 1.91304C-7.23483 2.8755 -7.16614 3.69168 -7.09348 4.30502L32.6287 -0.400749C32.6984 0.18686 32.7652 0.977119 32.7652 1.91304H-7.23483ZM-7.23237 1.95214V2.63951H32.7676V1.95214H-7.23237ZM-7.23237 2.63951C-7.23237 -7.70301 1.14991 -16.0843 11.4914 -16.0843V23.9157C23.2403 23.9157 32.7676 14.3893 32.7676 2.63951H-7.23237ZM11.4914 -16.0843C21.833 -16.0843 30.2152 -7.70298 30.2152 2.63951H-9.78476C-9.78476 14.3893 -0.25751 23.9157 11.4914 23.9157V-16.0843ZM30.2152 2.63951V0.672532H-9.78476V2.63951H30.2152ZM-10.4573 0.672532V1.55023H29.5427V0.672532H-10.4573ZM13.1428 -18.1231C16.2076 -17.5623 20.5472 -15.9323 24.0935 -11.8612L-6.06825 14.4118C-2.27604 18.7653 2.41916 20.5788 5.94266 21.2236L13.1428 -18.1231ZM24.0892 -11.8661C26.1247 -9.53084 27.2182 -7.14637 27.8122 -5.37141C28.4028 -3.60631 28.6216 -2.08538 28.7111 -1.04814L-11.1405 2.3932C-10.9722 4.34298 -10.2806 9.57911 -6.06393 14.4167L24.0892 -11.8661ZM8.7853 20.6725H9.54271V-19.3275H8.7853V20.6725Z" fill="white" mask="url(#path-1-inside-1)"/>
<mask id="path-3-inside-2" fill="white">
<path d="M22.6195 22.3275H22.1002V17.9214C22.1002 17.4447 21.7124 17.0568 21.2358 17.0568H15.4499C15.3672 17.0568 15.2875 17.0692 15.2117 17.091V9.99158C15.2117 9.51484 14.824 9.12701 14.3475 9.12701H8.56164C8.08518 9.12701 7.69753 9.51484 7.69753 9.99158V13.5659C7.63575 13.5518 7.57177 13.5437 7.50581 13.5437H1.71993C1.24333 13.5437 0.855595 13.9314 0.855595 14.4081V17.0369C0.855595 17.4706 1.52813 17.4706 1.52813 17.0369V14.4081C1.52813 14.3023 1.61417 14.2162 1.71993 14.2162H7.50577C7.61149 14.2162 7.69748 14.3023 7.69748 14.4081V22.3275H1.52813V18.6958C1.52813 18.2621 0.855595 18.2621 0.855595 18.6958V22.3275H0.336266C0.150513 22.3275 0 22.478 0 22.6637C0 22.8495 0.150513 23 0.336266 23H22.6195C22.8052 23 22.9558 22.8495 22.9558 22.6637C22.9558 22.478 22.8052 22.3275 22.6195 22.3275ZM8.37002 22.3275V14.4081V9.99158C8.37002 9.88572 8.45597 9.79955 8.5616 9.79955H14.3475C14.4532 9.79955 14.5392 9.88572 14.5392 9.99158V22.3275H8.37002V22.3275ZM15.2582 22.3275V17.9214C15.2582 17.8155 15.3442 17.7294 15.4499 17.7294H21.2358C21.3415 17.7294 21.4276 17.8155 21.4276 17.9214V22.3275H15.2582Z"/>
</mask>
<path d="M22.6195 22.3275H22.1002V17.9214C22.1002 17.4447 21.7124 17.0568 21.2358 17.0568H15.4499C15.3672 17.0568 15.2875 17.0692 15.2117 17.091V9.99158C15.2117 9.51484 14.824 9.12701 14.3475 9.12701H8.56164C8.08518 9.12701 7.69753 9.51484 7.69753 9.99158V13.5659C7.63575 13.5518 7.57177 13.5437 7.50581 13.5437H1.71993C1.24333 13.5437 0.855595 13.9314 0.855595 14.4081V17.0369C0.855595 17.4706 1.52813 17.4706 1.52813 17.0369V14.4081C1.52813 14.3023 1.61417 14.2162 1.71993 14.2162H7.50577C7.61149 14.2162 7.69748 14.3023 7.69748 14.4081V22.3275H1.52813V18.6958C1.52813 18.2621 0.855595 18.2621 0.855595 18.6958V22.3275H0.336266C0.150513 22.3275 0 22.478 0 22.6637C0 22.8495 0.150513 23 0.336266 23H22.6195C22.8052 23 22.9558 22.8495 22.9558 22.6637C22.9558 22.478 22.8052 22.3275 22.6195 22.3275ZM8.37002 22.3275V14.4081V9.99158C8.37002 9.88572 8.45597 9.79955 8.5616 9.79955H14.3475C14.4532 9.79955 14.5392 9.88572 14.5392 9.99158V22.3275H8.37002V22.3275ZM15.2582 22.3275V17.9214C15.2582 17.8155 15.3442 17.7294 15.4499 17.7294H21.2358C21.3415 17.7294 21.4276 17.8155 21.4276 17.9214V22.3275H15.2582Z" fill="white"/>
<path d="M22.1002 22.3275H2.10016V42.3275H22.1002V22.3275ZM15.2117 17.091H-4.78832V43.653L20.7391 36.312L15.2117 17.091ZM7.69753 13.5659L3.2541 33.0661L27.6975 38.6359V13.5659H7.69753ZM7.69748 22.3275V42.3275H27.6975V22.3275H7.69748ZM1.52813 22.3275H-18.4719V42.3275H1.52813V22.3275ZM0.855595 22.3275V42.3275H20.8556V22.3275H0.855595ZM14.5392 22.3275V42.3275H34.5392V22.3275H14.5392ZM8.37002 22.3275H-11.63V42.3275H8.37002V22.3275ZM15.2582 22.3275H-4.74178V42.3275H15.2582V22.3275ZM21.4276 22.3275V42.3275H41.4276V22.3275H21.4276ZM22.6195 2.32747H22.1002V42.3275H22.6195V2.32747ZM42.1002 22.3275V17.9214H2.10016V22.3275H42.1002ZM42.1002 17.9214C42.1002 6.40366 32.7628 -2.94316 21.2358 -2.94316V37.0568C10.662 37.0568 2.10016 28.4857 2.10016 17.9214H42.1002ZM21.2358 -2.94316H15.4499V37.0568H21.2358V-2.94316ZM15.4499 -2.94316C13.3568 -2.94316 11.4167 -2.62823 9.68422 -2.13001L20.7391 36.312C19.1582 36.7667 17.3776 37.0568 15.4499 37.0568V-2.94316ZM35.2117 17.091V9.99158H-4.78832V17.091H35.2117ZM35.2117 9.99158C35.2117 -1.52209 25.8785 -10.873 14.3475 -10.873V29.127C3.76958 29.127 -4.78832 20.5518 -4.78832 9.99158H35.2117ZM14.3475 -10.873H8.56164V29.127H14.3475V-10.873ZM8.56164 -10.873C-2.96996 -10.873 -12.3025 -1.52141 -12.3025 9.99158H27.6975C27.6975 20.5511 19.1403 29.127 8.56164 29.127V-10.873ZM-12.3025 9.99158V13.5659H27.6975V9.99158H-12.3025ZM12.141 -5.93425C10.7818 -6.24396 9.22294 -6.45629 7.50581 -6.45629V33.5437C5.9206 33.5437 4.48972 33.3476 3.2541 33.0661L12.141 -5.93425ZM7.50581 -6.45629H1.71993V33.5437H7.50581V-6.45629ZM1.71993 -6.45629C-9.80307 -6.45629 -19.1444 2.88646 -19.1444 14.4081H20.8556C20.8556 24.9764 12.2897 33.5437 1.71993 33.5437V-6.45629ZM-19.1444 14.4081V17.0369H20.8556V14.4081H-19.1444ZM-19.1444 17.0369C-19.1444 22.809 -16.6834 28.4865 -12.0786 32.4459C-7.89009 36.0472 -2.97764 37.3622 1.19186 37.3622C5.36136 37.3622 10.2738 36.0472 14.4623 32.4459C19.0671 28.4865 21.5281 22.809 21.5281 17.0369H-18.4719C-18.4719 11.4816 -16.0949 5.9667 -11.6162 2.1158C-7.55382 -1.37712 -2.8095 -2.63785 1.19186 -2.63785C5.19322 -2.63785 9.93754 -1.37712 13.9999 2.1158C18.4786 5.9667 20.8556 11.4816 20.8556 17.0369H-19.1444ZM21.5281 17.0369V14.4081H-18.4719V17.0369H21.5281ZM21.5281 14.4081C21.5281 25.3418 12.6661 34.2162 1.71993 34.2162V-5.78376C-9.43775 -5.78376 -18.4719 3.26285 -18.4719 14.4081H21.5281ZM1.71993 34.2162H7.50577V-5.78376H1.71993V34.2162ZM7.50577 34.2162C-3.44954 34.2162 -12.3025 25.3327 -12.3025 14.4081H27.6975C27.6975 3.27198 18.6725 -5.78376 7.50577 -5.78376V34.2162ZM-12.3025 14.4081V22.3275H27.6975V14.4081H-12.3025ZM7.69748 2.32747H1.52813V42.3275H7.69748V2.32747ZM21.5281 22.3275V18.6958H-18.4719V22.3275H21.5281ZM21.5281 18.6958C21.5281 12.9237 19.0671 7.24613 14.4623 3.28681C10.2738 -0.314534 5.36136 -1.62947 1.19186 -1.62947C-2.97764 -1.62947 -7.89009 -0.314534 -12.0786 3.28681C-16.6834 7.24613 -19.1444 12.9237 -19.1444 18.6958H20.8556C20.8556 24.2511 18.4786 29.766 13.9999 33.6169C9.93754 37.1098 5.19322 38.3705 1.19186 38.3705C-2.8095 38.3705 -7.55382 37.1098 -11.6162 33.6169C-16.0949 29.766 -18.4719 24.2511 -18.4719 18.6958H21.5281ZM-19.1444 18.6958V22.3275H20.8556V18.6958H-19.1444ZM0.855595 2.32747H0.336266V42.3275H0.855595V2.32747ZM0.336266 2.32747C-10.8952 2.32747 -20 11.4323 -20 22.6637H20C20 33.5237 11.1962 42.3275 0.336266 42.3275V2.32747ZM-20 22.6637C-20 33.8952 -10.8952 43 0.336266 43V3C11.1962 3 20 11.8038 20 22.6637H-20ZM0.336266 43H22.6195V3H0.336266V43ZM22.6195 43C33.8509 43 42.9557 33.8952 42.9557 22.6637H2.95575C2.95575 11.8038 11.7595 3 22.6195 3V43ZM42.9557 22.6637C42.9557 11.4305 33.8492 2.32747 22.6195 2.32747V42.3275C11.7612 42.3275 2.95575 33.5254 2.95575 22.6637H42.9557ZM28.37 22.3275V14.4081H-11.63V22.3275H28.37ZM28.37 14.4081V9.99158H-11.63V14.4081H28.37ZM28.37 9.99158C28.37 20.8857 19.5473 29.7995 8.5616 29.7995V-10.2005C-2.6354 -10.2005 -11.63 -1.11425 -11.63 9.99158H28.37ZM8.5616 29.7995H14.3475V-10.2005H8.5616V29.7995ZM14.3475 29.7995C3.36801 29.7995 -5.46085 20.8919 -5.46085 9.99158H34.5392C34.5392 -1.12049 25.5383 -10.2005 14.3475 -10.2005V29.7995ZM-5.46085 9.99158V22.3275H34.5392V9.99158H-5.46085ZM14.5392 2.32751H8.37002V42.3275H14.5392V2.32751ZM28.37 22.3275V22.3275H-11.63V22.3275H28.37ZM35.2582 22.3275V17.9214H-4.74178V22.3275H35.2582ZM35.2582 17.9214C35.2582 28.8247 26.4264 37.7294 15.4499 37.7294V-2.27063C4.26207 -2.27063 -4.74178 6.80634 -4.74178 17.9214H35.2582ZM15.4499 37.7294H21.2358V-2.27063H15.4499V37.7294ZM21.2358 37.7294C10.2717 37.7294 1.42758 28.8371 1.42758 17.9214H41.4276C41.4276 6.79402 32.4114 -2.27063 21.2358 -2.27063V37.7294ZM1.42758 17.9214V22.3275H41.4276V17.9214H1.42758ZM21.4276 2.32747H15.2582V42.3275H21.4276V2.32747Z" fill="white" mask="url(#path-3-inside-2)"/>
</svg>
